solid OpenSCAD_Model
  facet normal 0.0654145 0.997858 -0
    outer loop
      vertex 8.89158 9.97433 -2
      vertex 8.5 10 2
      vertex 8.89158 9.97433 2
    endloop
  endfacet
  facet normal 0.0654145 0.997858 0
    outer loop
      vertex 8.5 10 2
      vertex 8.89158 9.97433 -2
      vertex 8.5 10 -2
    endloop
  endfacet
  facet normal 0.442283 -0.896875 0
    outer loop
      vertex 9.64805 2.22836 -2
      vertex 10 2.40192 2
      vertex 9.64805 2.22836 2
    endloop
  endfacet
  facet normal 0.442283 -0.896875 0
    outer loop
      vertex 10 2.40192 2
      vertex 9.64805 2.22836 -2
      vertex 10 2.40192 -2
    endloop
  endfacet
  facet normal -0.321444 0.946928 0
    outer loop
      vertex -9.27646 9.89778 -2
      vertex -9.64805 9.77164 2
      vertex -9.27646 9.89778 2
    endloop
  endfacet
  facet normal -0.321444 0.946928 0
    outer loop
      vertex -9.64805 9.77164 2
      vertex -9.27646 9.89778 -2
      vertex -9.64805 9.77164 -2
    endloop
  endfacet
  facet normal 0 1 -0
    outer loop
      vertex 8.5 10 -2
      vertex -8.5 10 2
      vertex 8.5 10 2
    endloop
  endfacet
  facet normal 0 1 0
    outer loop
      vertex -8.5 10 2
      vertex 8.5 10 -2
      vertex -8.5 10 -2
    endloop
  endfacet
  facet normal -0.0654145 -0.997858 0
    outer loop
      vertex -8.89158 2.02567 -2
      vertex -8.5 2 2
      vertex -8.89158 2.02567 2
    endloop
  endfacet
  facet normal -0.0654145 -0.997858 -0
    outer loop
      vertex -8.5 2 2
      vertex -8.89158 2.02567 -2
      vertex -8.5 2 -2
    endloop
  endfacet
  facet normal 0.195072 0.980789 -0
    outer loop
      vertex 9.27646 9.89778 -2
      vertex 8.89158 9.97433 2
      vertex 9.27646 9.89778 2
    endloop
  endfacet
  facet normal 0.195072 0.980789 0
    outer loop
      vertex 8.89158 9.97433 2
      vertex 9.27646 9.89778 -2
      vertex 8.89158 9.97433 -2
    endloop
  endfacet
  facet normal -0.980813 -0.19495 0
    outer loop
      vertex -11.3978 4.22354 -2
      vertex -11.4743 4.60842 2
      vertex -11.4743 4.60842 -2
    endloop
  endfacet
  facet normal -0.980813 -0.19495 0
    outer loop
      vertex -11.4743 4.60842 2
      vertex -11.3978 4.22354 -2
      vertex -11.3978 4.22354 2
    endloop
  endfacet
  facet normal 0 -1 0
    outer loop
      vertex -8.5 2 -2
      vertex 8.5 2 2
      vertex -8.5 2 2
    endloop
  endfacet
  facet normal 0 -1 -0
    outer loop
      vertex 8.5 2 2
      vertex -8.5 2 -2
      vertex 8.5 2 -2
    endloop
  endfacet
  facet normal 0.946882 -0.321582 0
    outer loop
      vertex 11.2716 3.85195 2
      vertex 11.3978 4.22354 -2
      vertex 11.3978 4.22354 2
    endloop
  endfacet
  facet normal 0.946882 -0.321582 0
    outer loop
      vertex 11.3978 4.22354 -2
      vertex 11.2716 3.85195 2
      vertex 11.2716 3.85195 -2
    endloop
  endfacet
  facet normal 0.997853 0.0654906 0
    outer loop
      vertex 11.5 7 2
      vertex 11.4743 7.39158 -2
      vertex 11.4743 7.39158 2
    endloop
  endfacet
  facet normal 0.997853 0.0654906 0
    outer loop
      vertex 11.4743 7.39158 -2
      vertex 11.5 7 2
      vertex 11.5 7 -2
    endloop
  endfacet
  facet normal 0 0 1
    outer loop
      vertex 10.0855 6.77787 2
      vertex 11.5 7 2
      vertex 11.4743 7.39158 2
    endloop
  endfacet
  facet normal 0 0 1
    outer loop
      vertex 11.5 7 2
      vertex 10.2 6 2
      vertex 11.5 5 2
    endloop
  endfacet
  facet normal 0 0 1
    outer loop
      vertex 9.94471 7.14603 2
      vertex 11.4743 7.39158 2
      vertex 11.3978 7.77646 2
    endloop
  endfacet
  facet normal -0 0 1
    outer loop
      vertex 10.1712 5.60688 2
      vertex 11.5 5 2
      vertex 10.2 6 2
    endloop
  endfacet
  facet normal 0 0 1
    outer loop
      vertex 9.94471 7.14603 2
      vertex 11.3978 7.77646 2
      vertex 11.2716 8.14805 2
    endloop
  endfacet
  facet normal -0 0 1
    outer loop
      vertex 10.0855 5.22213 2
      vertex 11.5 5 2
      vertex 10.1712 5.60688 2
    endloop
  endfacet
  facet normal 0 0 1
    outer loop
      vertex 9.75179 7.48977 2
      vertex 11.2716 8.14805 2
      vertex 11.0981 8.5 2
    endloop
  endfacet
  facet normal 0 0 1
    outer loop
      vertex 11.5 5 2
      vertex 10.0855 5.22213 2
      vertex 11.4743 4.60842 2
    endloop
  endfacet
  facet normal 0 0 1
    outer loop
      vertex 9.51088 7.80176 2
      vertex 11.0981 8.5 2
      vertex 10.8801 8.82628 2
    endloop
  endfacet
  facet normal -0 0 1
    outer loop
      vertex 9.94471 4.85397 2
      vertex 11.4743 4.60842 2
      vertex 10.0855 5.22213 2
    endloop
  endfacet
  facet normal 0 0 1
    outer loop
      vertex 9.51088 7.80176 2
      vertex 10.8801 8.82628 2
      vertex 10.6213 9.12132 2
    endloop
  endfacet
  facet normal 0 0 1
    outer loop
      vertex 11.4743 4.60842 2
      vertex 9.94471 4.85397 2
      vertex 11.3978 4.22354 2
    endloop
  endfacet
  facet normal 0 0 1
    outer loop
      vertex 9.22712 8.07535 2
      vertex 10.6213 9.12132 2
      vertex 10.3263 9.38006 2
    endloop
  endfacet
  facet normal 0 0 1
    outer loop
      vertex 11.3978 4.22354 2
      vertex 9.94471 4.85397 2
      vertex 11.2716 3.85195 2
    endloop
  endfacet
  facet normal -0 0 1
    outer loop
      vertex 9.75179 4.51023 2
      vertex 11.2716 3.85195 2
      vertex 9.94471 4.85397 2
    endloop
  endfacet
  facet normal 0 0 1
    outer loop
      vertex 11.5 7 2
      vertex 10.1712 6.39312 2
      vertex 10.2 6 2
    endloop
  endfacet
  facet normal 0 0 1
    outer loop
      vertex 11.5 7 2
      vertex 10.0855 6.77787 2
      vertex 10.1712 6.39312 2
    endloop
  endfacet
  facet normal 0 0 1
    outer loop
      vertex 9.22712 8.07535 2
      vertex 10.3263 9.38006 2
      vertex 10 9.59808 2
    endloop
  endfacet
  facet normal 0 0 1
    outer loop
      vertex 11.4743 7.39158 2
      vertex 9.94471 7.14603 2
      vertex 10.0855 6.77787 2
    endloop
  endfacet
  facet normal 0 0 1
    outer loop
      vertex 11.2716 8.14805 2
      vertex 9.75179 7.48977 2
      vertex 9.94471 7.14603 2
    endloop
  endfacet
  facet normal 0 0 1
    outer loop
      vertex 8.90654 8.3047 2
      vertex 10 9.59808 2
      vertex 9.64805 9.77164 2
    endloop
  endfacet
  facet normal 0 0 1
    outer loop
      vertex 11.0981 8.5 2
      vertex 9.51088 7.80176 2
      vertex 9.75179 7.48977 2
    endloop
  endfacet
  facet normal 0 0 1
    outer loop
      vertex 8.90654 8.3047 2
      vertex 9.64805 9.77164 2
      vertex 9.27646 9.89778 2
    endloop
  endfacet
  facet normal 0 0 1
    outer loop
      vertex 10.6213 9.12132 2
      vertex 9.22712 8.07535 2
      vertex 9.51088 7.80176 2
    endloop
  endfacet
  facet normal 0 0 1
    outer loop
      vertex 10 9.59808 2
      vertex 8.90654 8.3047 2
      vertex 9.22712 8.07535 2
    endloop
  endfacet
  facet normal 0 0 1
    outer loop
      vertex 8.55598 8.48493 2
      vertex 9.27646 9.89778 2
      vertex 8.89158 9.97433 2
    endloop
  endfacet
  facet normal 0 0 1
    outer loop
      vertex 9.27646 9.89778 2
      vertex 8.55598 8.48493 2
      vertex 8.90654 8.3047 2
    endloop
  endfacet
  facet normal 0 0 1
    outer loop
      vertex 8.5 10 2
      vertex 8.55598 8.48493 2
      vertex 8.89158 9.97433 2
    endloop
  endfacet
  facet normal 0 0 1
    outer loop
      vertex 8.5 10 2
      vertex 8.18292 8.61221 2
      vertex 8.55598 8.48493 2
    endloop
  endfacet
  facet normal 0 0 1
    outer loop
      vertex 8.5 10 2
      vertex 7.7953 8.6838 2
      vertex 8.18292 8.61221 2
    endloop
  endfacet
  facet normal 0 0 1
    outer loop
      vertex 8.5 10 2
      vertex 7.40139 8.6982 2
      vertex 7.7953 8.6838 2
    endloop
  endfacet
  facet normal 0 0 1
    outer loop
      vertex 8.5 10 2
      vertex 7.00958 8.65509 2
      vertex 7.40139 8.6982 2
    endloop
  endfacet
  facet normal 0 0 1
    outer loop
      vertex 8.5 10 2
      vertex 6.62822 8.55539 2
      vertex 7.00958 8.65509 2
    endloop
  endfacet
  facet normal 0 0 1
    outer loop
      vertex 8.5 10 2
      vertex 6.26545 8.40122 2
      vertex 6.62822 8.55539 2
    endloop
  endfacet
  facet normal -0 0 1
    outer loop
      vertex -8.5 10 2
      vertex 6.26545 8.40122 2
      vertex 8.5 10 2
    endloop
  endfacet
  facet normal 0 0 1
    outer loop
      vertex 4.8072 6.19709 2
      vertex -6.7 6 2
      vertex 4.8072 5.80291 2
    endloop
  endfacet
  facet normal 0 0 1
    outer loop
      vertex 4.86459 6.58706 2
      vertex -6.7 6 2
      vertex 4.8072 6.19709 2
    endloop
  endfacet
  facet normal 0 0 1
    outer loop
      vertex -6.79163 6.37178 2
      vertex 4.86459 6.58706 2
      vertex 4.97816 6.96452 2
    endloop
  endfacet
  facet normal 0 0 1
    outer loop
      vertex -6.79163 6.37178 2
      vertex 4.97816 6.96452 2
      vertex 5.14547 7.32143 2
    endloop
  endfacet
  facet normal 0 0 1
    outer loop
      vertex -8.5 10 2
      vertex 5.14547 7.32143 2
      vertex 5.36296 7.65017 2
    endloop
  endfacet
  facet normal 0 0 1
    outer loop
      vertex -8.5 10 2
      vertex 5.36296 7.65017 2
      vertex 5.626 7.94374 2
    endloop
  endfacet
  facet normal 0 0 1
    outer loop
      vertex -8.5 10 2
      vertex 5.626 7.94374 2
      vertex 5.92898 8.19588 2
    endloop
  endfacet
  facet normal 0 0 1
    outer loop
      vertex 6.26545 8.40122 2
      vertex -8.5 10 2
      vertex 5.92898 8.19588 2
    endloop
  endfacet
  facet normal 0 0 1
    outer loop
      vertex 4.86459 6.58706 2
      vertex -6.79163 6.37178 2
      vertex -6.7 6 2
    endloop
  endfacet
  facet normal 0 0 1
    outer loop
      vertex 5.14547 7.32143 2
      vertex -8.5 10 2
      vertex -6.79163 6.37178 2
    endloop
  endfacet
  facet normal 0 0 1
    outer loop
      vertex -6.79163 6.37178 2
      vertex -8.5 10 2
      vertex -7.04555 6.65839 2
    endloop
  endfacet
  facet normal 0 0 1
    outer loop
      vertex -7.04555 6.65839 2
      vertex -8.5 10 2
      vertex -7.40357 6.79417 2
    endloop
  endfacet
  facet normal -0 0 1
    outer loop
      vertex -9.64805 9.77164 2
      vertex -7.78368 6.74801 2
      vertex -9.27646 9.89778 2
    endloop
  endfacet
  facet normal -0 0 1
    outer loop
      vertex -9.27646 9.89778 2
      vertex -7.78368 6.74801 2
      vertex -8.89158 9.97433 2
    endloop
  endfacet
  facet normal -0 0 1
    outer loop
      vertex -8.89158 9.97433 2
      vertex -7.78368 6.74801 2
      vertex -8.5 10 2
    endloop
  endfacet
  facet normal 0 0 1
    outer loop
      vertex -7.40357 6.79417 2
      vertex -8.5 10 2
      vertex -7.78368 6.74801 2
    endloop
  endfacet
  facet normal 0 0 1
    outer loop
      vertex 11.2716 3.85195 2
      vertex 9.75179 4.51023 2
      vertex 11.0981 3.5 2
    endloop
  endfacet
  facet normal -0 0 1
    outer loop
      vertex 9.51088 4.19824 2
      vertex 11.0981 3.5 2
      vertex 9.75179 4.51023 2
    endloop
  endfacet
  facet normal 0 0 1
    outer loop
      vertex 11.0981 3.5 2
      vertex 9.51088 4.19824 2
      vertex 10.8801 3.17372 2
    endloop
  endfacet
  facet normal 0 0 1
    outer loop
      vertex 10.8801 3.17372 2
      vertex 9.51088 4.19824 2
      vertex 10.6213 2.87868 2
    endloop
  endfacet
  facet normal -0 0 1
    outer loop
      vertex 9.22712 3.92465 2
      vertex 10.6213 2.87868 2
      vertex 9.51088 4.19824 2
    endloop
  endfacet
  facet normal 0 0 1
    outer loop
      vertex 10.6213 2.87868 2
      vertex 9.22712 3.92465 2
      vertex 10.3263 2.61994 2
    endloop
  endfacet
  facet normal 0 0 1
    outer loop
      vertex 10.3263 2.61994 2
      vertex 9.22712 3.92465 2
      vertex 10 2.40192 2
    endloop
  endfacet
  facet normal -0 0 1
    outer loop
      vertex 8.90654 3.6953 2
      vertex 10 2.40192 2
      vertex 9.22712 3.92465 2
    endloop
  endfacet
  facet normal 0 0 1
    outer loop
      vertex 10 2.40192 2
      vertex 8.90654 3.6953 2
      vertex 9.64805 2.22836 2
    endloop
  endfacet
  facet normal 0 0 1
    outer loop
      vertex 9.64805 2.22836 2
      vertex 8.90654 3.6953 2
      vertex 9.27646 2.10222 2
    endloop
  endfacet
  facet normal -0 0 1
    outer loop
      vertex 8.55598 3.51507 2
      vertex 9.27646 2.10222 2
      vertex 8.90654 3.6953 2
    endloop
  endfacet
  facet normal 0 0 1
    outer loop
      vertex 9.27646 2.10222 2
      vertex 8.55598 3.51507 2
      vertex 8.89158 2.02567 2
    endloop
  endfacet
  facet normal 0 0 1
    outer loop
      vertex 8.55598 3.51507 2
      vertex 8.5 2 2
      vertex 8.89158 2.02567 2
    endloop
  endfacet
  facet normal -0 0 1
    outer loop
      vertex 8.18292 3.38779 2
      vertex 8.5 2 2
      vertex 8.55598 3.51507 2
    endloop
  endfacet
  facet normal -0 0 1
    outer loop
      vertex 7.7953 3.3162 2
      vertex 8.5 2 2
      vertex 8.18292 3.38779 2
    endloop
  endfacet
  facet normal -0 0 1
    outer loop
      vertex 7.40139 3.3018 2
      vertex 8.5 2 2
      vertex 7.7953 3.3162 2
    endloop
  endfacet
  facet normal 0 0 1
    outer loop
      vertex 7.00958 3.34491 2
      vertex 8.5 2 2
      vertex 7.40139 3.3018 2
    endloop
  endfacet
  facet normal 0 0 1
    outer loop
      vertex 6.62822 3.44461 2
      vertex 8.5 2 2
      vertex 7.00958 3.34491 2
    endloop
  endfacet
  facet normal 0 0 1
    outer loop
      vertex 6.26545 3.59878 2
      vertex 8.5 2 2
      vertex 6.62822 3.44461 2
    endloop
  endfacet
  facet normal 0 0 1
    outer loop
      vertex -8.5 2 2
      vertex 6.26545 3.59878 2
      vertex 5.92898 3.80412 2
    endloop
  endfacet
  facet normal 0 0 1
    outer loop
      vertex -6.7 6 2
      vertex 4.86459 5.41294 2
      vertex 4.8072 5.80291 2
    endloop
  endfacet
  facet normal -0 0 1
    outer loop
      vertex -6.79163 5.62822 2
      vertex 4.86459 5.41294 2
      vertex -6.7 6 2
    endloop
  endfacet
  facet normal 0 0 1
    outer loop
      vertex 4.86459 5.41294 2
      vertex -6.79163 5.62822 2
      vertex 4.97816 5.03548 2
    endloop
  endfacet
  facet normal 0 0 1
    outer loop
      vertex 4.97816 5.03548 2
      vertex -6.79163 5.62822 2
      vertex 5.14547 4.67857 2
    endloop
  endfacet
  facet normal 0 0 1
    outer loop
      vertex -8.5 2 2
      vertex 5.14547 4.67857 2
      vertex -6.79163 5.62822 2
    endloop
  endfacet
  facet normal 0 0 1
    outer loop
      vertex 5.14547 4.67857 2
      vertex -8.5 2 2
      vertex 5.36296 4.34983 2
    endloop
  endfacet
  facet normal 0 0 1
    outer loop
      vertex 5.36296 4.34983 2
      vertex -8.5 2 2
      vertex 5.626 4.05626 2
    endloop
  endfacet
  facet normal 0 0 1
    outer loop
      vertex 5.626 4.05626 2
      vertex -8.5 2 2
      vertex 5.92898 3.80412 2
    endloop
  endfacet
  facet normal 0 0 1
    outer loop
      vertex -8.5 2 2
      vertex -6.79163 5.62822 2
      vertex -7.04555 5.34161 2
    endloop
  endfacet
  facet normal 0 0 1
    outer loop
      vertex -8.5 2 2
      vertex -7.04555 5.34161 2
      vertex -7.40357 5.20583 2
    endloop
  endfacet
  facet normal 0 0 1
    outer loop
      vertex -8.5 2 2
      vertex -7.40357 5.20583 2
      vertex -7.78368 5.25199 2
    endloop
  endfacet
  facet normal 0 0 1
    outer loop
      vertex 6.26545 3.59878 2
      vertex -8.5 2 2
      vertex 8.5 2 2
    endloop
  endfacet
  facet normal 0 0 1
    outer loop
      vertex -9.64805 2.22836 2
      vertex -7.78368 5.25199 2
      vertex -8.09881 5.4695 2
    endloop
  endfacet
  facet normal 0 0 1
    outer loop
      vertex -11.4743 4.60842 2
      vertex -8.09881 5.4695 2
      vertex -8.27675 5.80855 2
    endloop
  endfacet
  facet normal 0 0 1
    outer loop
      vertex -7.78368 6.74801 2
      vertex -9.64805 9.77164 2
      vertex -8.09881 6.5305 2
    endloop
  endfacet
  facet normal -0 0 1
    outer loop
      vertex -10 9.59808 2
      vertex -8.09881 6.5305 2
      vertex -9.64805 9.77164 2
    endloop
  endfacet
  facet normal 0 0 1
    outer loop
      vertex -11.5 5 2
      vertex -8.27675 5.80855 2
      vertex -11.5 7 2
    endloop
  endfacet
  facet normal -0 0 1
    outer loop
      vertex -10.3263 9.38006 2
      vertex -8.09881 6.5305 2
      vertex -10 9.59808 2
    endloop
  endfacet
  facet normal 0 -0 1
    outer loop
      vertex -11.4743 4.60842 2
      vertex -8.27675 5.80855 2
      vertex -11.5 5 2
    endloop
  endfacet
  facet normal -0 0 1
    outer loop
      vertex -10.6213 9.12132 2
      vertex -8.09881 6.5305 2
      vertex -10.3263 9.38006 2
    endloop
  endfacet
  facet normal 0 0 1
    outer loop
      vertex -7.78368 5.25199 2
      vertex -8.89158 2.02567 2
      vertex -8.5 2 2
    endloop
  endfacet
  facet normal -0 0 1
    outer loop
      vertex -10.8801 8.82628 2
      vertex -8.09881 6.5305 2
      vertex -10.6213 9.12132 2
    endloop
  endfacet
  facet normal 0 0 1
    outer loop
      vertex -7.78368 5.25199 2
      vertex -9.27646 2.10222 2
      vertex -8.89158 2.02567 2
    endloop
  endfacet
  facet normal -0 0 1
    outer loop
      vertex -11.0981 8.5 2
      vertex -8.09881 6.5305 2
      vertex -10.8801 8.82628 2
    endloop
  endfacet
  facet normal 0 0 1
    outer loop
      vertex -7.78368 5.25199 2
      vertex -9.64805 2.22836 2
      vertex -9.27646 2.10222 2
    endloop
  endfacet
  facet normal -0 0 1
    outer loop
      vertex -11.2716 8.14805 2
      vertex -8.09881 6.5305 2
      vertex -11.0981 8.5 2
    endloop
  endfacet
  facet normal 0 0 1
    outer loop
      vertex -8.09881 5.4695 2
      vertex -10 2.40192 2
      vertex -9.64805 2.22836 2
    endloop
  endfacet
  facet normal -0 0 1
    outer loop
      vertex -11.3978 7.77646 2
      vertex -8.09881 6.5305 2
      vertex -11.2716 8.14805 2
    endloop
  endfacet
  facet normal 0 0 1
    outer loop
      vertex -8.09881 5.4695 2
      vertex -10.3263 2.61994 2
      vertex -10 2.40192 2
    endloop
  endfacet
  facet normal -0 0 1
    outer loop
      vertex -11.4743 7.39158 2
      vertex -8.09881 6.5305 2
      vertex -11.3978 7.77646 2
    endloop
  endfacet
  facet normal 0 0 1
    outer loop
      vertex -8.09881 5.4695 2
      vertex -10.6213 2.87868 2
      vertex -10.3263 2.61994 2
    endloop
  endfacet
  facet normal 0 0 1
    outer loop
      vertex -8.09881 6.5305 2
      vertex -11.4743 7.39158 2
      vertex -8.27675 6.19145 2
    endloop
  endfacet
  facet normal 0 0 1
    outer loop
      vertex -8.09881 5.4695 2
      vertex -10.8801 3.17372 2
      vertex -10.6213 2.87868 2
    endloop
  endfacet
  facet normal -0 0 1
    outer loop
      vertex -11.5 7 2
      vertex -8.27675 6.19145 2
      vertex -11.4743 7.39158 2
    endloop
  endfacet
  facet normal 0 0 1
    outer loop
      vertex -8.09881 5.4695 2
      vertex -11.0981 3.5 2
      vertex -10.8801 3.17372 2
    endloop
  endfacet
  facet normal 0 0 1
    outer loop
      vertex -8.27675 6.19145 2
      vertex -11.5 7 2
      vertex -8.27675 5.80855 2
    endloop
  endfacet
  facet normal 0 0 1
    outer loop
      vertex -8.09881 5.4695 2
      vertex -11.2716 3.85195 2
      vertex -11.0981 3.5 2
    endloop
  endfacet
  facet normal 0 0 1
    outer loop
      vertex -8.09881 5.4695 2
      vertex -11.3978 4.22354 2
      vertex -11.2716 3.85195 2
    endloop
  endfacet
  facet normal 0 0 1
    outer loop
      vertex -8.09881 5.4695 2
      vertex -11.4743 4.60842 2
      vertex -11.3978 4.22354 2
    endloop
  endfacet
  facet normal -0.831485 -0.555547 0
    outer loop
      vertex -10.8801 3.17372 -2
      vertex -11.0981 3.5 2
      vertex -11.0981 3.5 -2
    endloop
  endfacet
  facet normal -0.831485 -0.555547 0
    outer loop
      vertex -11.0981 3.5 2
      vertex -10.8801 3.17372 -2
      vertex -10.8801 3.17372 2
    endloop
  endfacet
  facet normal 0.0654145 -0.997858 0
    outer loop
      vertex 8.5 2 -2
      vertex 8.89158 2.02567 2
      vertex 8.5 2 2
    endloop
  endfacet
  facet normal 0.0654145 -0.997858 0
    outer loop
      vertex 8.89158 2.02567 2
      vertex 8.5 2 -2
      vertex 8.89158 2.02567 -2
    endloop
  endfacet
  facet normal 0.321444 -0.946928 0
    outer loop
      vertex 9.27646 2.10222 -2
      vertex 9.64805 2.22836 2
      vertex 9.27646 2.10222 2
    endloop
  endfacet
  facet normal 0.321444 -0.946928 0
    outer loop
      vertex 9.64805 2.22836 2
      vertex 9.27646 2.10222 -2
      vertex 9.64805 2.22836 -2
    endloop
  endfacet
  facet normal 0.751768 -0.659428 0
    outer loop
      vertex 10.6213 2.87868 2
      vertex 10.8801 3.17372 -2
      vertex 10.8801 3.17372 2
    endloop
  endfacet
  facet normal 0.751768 -0.659428 0
    outer loop
      vertex 10.8801 3.17372 -2
      vertex 10.6213 2.87868 2
      vertex 10.6213 2.87868 -2
    endloop
  endfacet
  facet normal 1 -0 0
    outer loop
      vertex 11.5 5 2
      vertex 11.5 7 -2
      vertex 11.5 7 2
    endloop
  endfacet
  facet normal 1 0 0
    outer loop
      vertex 11.5 7 -2
      vertex 11.5 5 2
      vertex 11.5 5 -2
    endloop
  endfacet
  facet normal 0.896936 -0.44216 0
    outer loop
      vertex 11.0981 3.5 2
      vertex 11.2716 3.85195 -2
      vertex 11.2716 3.85195 2
    endloop
  endfacet
  facet normal 0.896936 -0.44216 0
    outer loop
      vertex 11.2716 3.85195 -2
      vertex 11.0981 3.5 2
      vertex 11.0981 3.5 -2
    endloop
  endfacet
  facet normal 0.751768 0.659428 0
    outer loop
      vertex 10.8801 8.82628 2
      vertex 10.6213 9.12132 -2
      vertex 10.6213 9.12132 2
    endloop
  endfacet
  facet normal 0.751768 0.659428 0
    outer loop
      vertex 10.6213 9.12132 -2
      vertex 10.8801 8.82628 2
      vertex 10.8801 8.82628 -2
    endloop
  endfacet
  facet normal -0.195072 0.980789 0
    outer loop
      vertex -8.89158 9.97433 -2
      vertex -9.27646 9.89778 2
      vertex -8.89158 9.97433 2
    endloop
  endfacet
  facet normal -0.195072 0.980789 0
    outer loop
      vertex -9.27646 9.89778 2
      vertex -8.89158 9.97433 -2
      vertex -9.27646 9.89778 -2
    endloop
  endfacet
  facet normal -0.0654145 0.997858 0
    outer loop
      vertex -8.5 10 -2
      vertex -8.89158 9.97433 2
      vertex -8.5 10 2
    endloop
  endfacet
  facet normal -0.0654145 0.997858 0
    outer loop
      vertex -8.89158 9.97433 2
      vertex -8.5 10 -2
      vertex -8.89158 9.97433 -2
    endloop
  endfacet
  facet normal -0.997853 -0.0654906 0
    outer loop
      vertex -11.4743 4.60842 -2
      vertex -11.5 5 2
      vertex -11.5 5 -2
    endloop
  endfacet
  facet normal -0.997853 -0.0654906 0
    outer loop
      vertex -11.5 5 2
      vertex -11.4743 4.60842 -2
      vertex -11.4743 4.60842 2
    endloop
  endfacet
  facet normal -0.896936 0.44216 0
    outer loop
      vertex -11.2716 8.14805 -2
      vertex -11.0981 8.5 2
      vertex -11.0981 8.5 -2
    endloop
  endfacet
  facet normal -0.896936 0.44216 0
    outer loop
      vertex -11.0981 8.5 2
      vertex -11.2716 8.14805 -2
      vertex -11.2716 8.14805 2
    endloop
  endfacet
  facet normal -0.442283 -0.896875 0
    outer loop
      vertex -10 2.40192 -2
      vertex -9.64805 2.22836 2
      vertex -10 2.40192 2
    endloop
  endfacet
  facet normal -0.442283 -0.896875 -0
    outer loop
      vertex -9.64805 2.22836 2
      vertex -10 2.40192 -2
      vertex -9.64805 2.22836 -2
    endloop
  endfacet
  facet normal 0.195072 -0.980789 0
    outer loop
      vertex 8.89158 2.02567 -2
      vertex 9.27646 2.10222 2
      vertex 8.89158 2.02567 2
    endloop
  endfacet
  facet normal 0.195072 -0.980789 0
    outer loop
      vertex 9.27646 2.10222 2
      vertex 8.89158 2.02567 -2
      vertex 9.27646 2.10222 -2
    endloop
  endfacet
  facet normal 0.980813 -0.19495 0
    outer loop
      vertex 11.3978 4.22354 2
      vertex 11.4743 4.60842 -2
      vertex 11.4743 4.60842 2
    endloop
  endfacet
  facet normal 0.980813 -0.19495 0
    outer loop
      vertex 11.4743 4.60842 -2
      vertex 11.3978 4.22354 2
      vertex 11.3978 4.22354 -2
    endloop
  endfacet
  facet normal 0.997853 -0.0654906 0
    outer loop
      vertex 11.4743 4.60842 2
      vertex 11.5 5 -2
      vertex 11.5 5 2
    endloop
  endfacet
  facet normal 0.997853 -0.0654906 0
    outer loop
      vertex 11.5 5 -2
      vertex 11.4743 4.60842 2
      vertex 11.4743 4.60842 -2
    endloop
  endfacet
  facet normal 0.659392 -0.751799 0
    outer loop
      vertex 10.3263 2.61994 -2
      vertex 10.6213 2.87868 2
      vertex 10.3263 2.61994 2
    endloop
  endfacet
  facet normal 0.659392 -0.751799 0
    outer loop
      vertex 10.6213 2.87868 2
      vertex 10.3263 2.61994 -2
      vertex 10.6213 2.87868 -2
    endloop
  endfacet
  facet normal 0.555558 -0.831477 0
    outer loop
      vertex 10 2.40192 -2
      vertex 10.3263 2.61994 2
      vertex 10 2.40192 2
    endloop
  endfacet
  facet normal 0.555558 -0.831477 0
    outer loop
      vertex 10.3263 2.61994 2
      vertex 10 2.40192 -2
      vertex 10.3263 2.61994 -2
    endloop
  endfacet
  facet normal 0.831485 0.555547 0
    outer loop
      vertex 11.0981 8.5 2
      vertex 10.8801 8.82628 -2
      vertex 10.8801 8.82628 2
    endloop
  endfacet
  facet normal 0.831485 0.555547 0
    outer loop
      vertex 10.8801 8.82628 -2
      vertex 11.0981 8.5 2
      vertex 11.0981 8.5 -2
    endloop
  endfacet
  facet normal 0.896936 0.44216 0
    outer loop
      vertex 11.2716 8.14805 2
      vertex 11.0981 8.5 -2
      vertex 11.0981 8.5 2
    endloop
  endfacet
  facet normal 0.896936 0.44216 0
    outer loop
      vertex 11.0981 8.5 -2
      vertex 11.2716 8.14805 2
      vertex 11.2716 8.14805 -2
    endloop
  endfacet
  facet normal 0.980813 0.19495 0
    outer loop
      vertex 11.4743 7.39158 2
      vertex 11.3978 7.77646 -2
      vertex 11.3978 7.77646 2
    endloop
  endfacet
  facet normal 0.980813 0.19495 0
    outer loop
      vertex 11.3978 7.77646 -2
      vertex 11.4743 7.39158 2
      vertex 11.4743 7.39158 -2
    endloop
  endfacet
  facet normal -0.997853 0.0654906 0
    outer loop
      vertex -11.5 7 -2
      vertex -11.4743 7.39158 2
      vertex -11.4743 7.39158 -2
    endloop
  endfacet
  facet normal -0.997853 0.0654906 0
    outer loop
      vertex -11.4743 7.39158 2
      vertex -11.5 7 -2
      vertex -11.5 7 2
    endloop
  endfacet
  facet normal -0.946882 0.321582 0
    outer loop
      vertex -11.3978 7.77646 -2
      vertex -11.2716 8.14805 2
      vertex -11.2716 8.14805 -2
    endloop
  endfacet
  facet normal -0.946882 0.321582 0
    outer loop
      vertex -11.2716 8.14805 2
      vertex -11.3978 7.77646 -2
      vertex -11.3978 7.77646 2
    endloop
  endfacet
  facet normal -1 0 0
    outer loop
      vertex -11.5 5 -2
      vertex -11.5 7 2
      vertex -11.5 7 -2
    endloop
  endfacet
  facet normal -1 -0 0
    outer loop
      vertex -11.5 7 2
      vertex -11.5 5 -2
      vertex -11.5 5 2
    endloop
  endfacet
  facet normal 0 0 -1
    outer loop
      vertex 11.5 5 -2
      vertex 8.42388 5.61732 -2
      vertex 8.5 6 -2
    endloop
  endfacet
  facet normal 0 0 -1
    outer loop
      vertex 8.89158 2.02567 -2
      vertex 8.20711 5.29289 -2
      vertex 8.42388 5.61732 -2
    endloop
  endfacet
  facet normal 0 0 -1
    outer loop
      vertex 8.89158 2.02567 -2
      vertex 7.88268 5.07612 -2
      vertex 8.20711 5.29289 -2
    endloop
  endfacet
  facet normal 0 0 -1
    outer loop
      vertex 8.5 2 -2
      vertex 7.5 5 -2
      vertex 7.88268 5.07612 -2
    endloop
  endfacet
  facet normal 0 0 -1
    outer loop
      vertex 8.5 2 -2
      vertex 7.11732 5.07612 -2
      vertex 7.5 5 -2
    endloop
  endfacet
  facet normal 0 0 -1
    outer loop
      vertex 8.5 2 -2
      vertex 6.79289 5.29289 -2
      vertex 7.11732 5.07612 -2
    endloop
  endfacet
  facet normal 0 0 -1
    outer loop
      vertex -8.5 2 -2
      vertex 6.79289 5.29289 -2
      vertex 8.5 2 -2
    endloop
  endfacet
  facet normal 0 0 -1
    outer loop
      vertex 6.57612 5.61732 -2
      vertex -6.7 6 -2
      vertex 6.5 6 -2
    endloop
  endfacet
  facet normal 0 -0 -1
    outer loop
      vertex -6.79163 5.62822 -2
      vertex 6.79289 5.29289 -2
      vertex -8.5 2 -2
    endloop
  endfacet
  facet normal 0 0 -1
    outer loop
      vertex 6.57612 5.61732 -2
      vertex -6.79163 5.62822 -2
      vertex -6.7 6 -2
    endloop
  endfacet
  facet normal 0 0 -1
    outer loop
      vertex 6.79289 5.29289 -2
      vertex -6.79163 5.62822 -2
      vertex 6.57612 5.61732 -2
    endloop
  endfacet
  facet normal 0 0 -1
    outer loop
      vertex -6.79163 5.62822 -2
      vertex -8.5 2 -2
      vertex -7.04555 5.34161 -2
    endloop
  endfacet
  facet normal 0 0 -1
    outer loop
      vertex -7.04555 5.34161 -2
      vertex -8.5 2 -2
      vertex -7.40357 5.20583 -2
    endloop
  endfacet
  facet normal 0 0 -1
    outer loop
      vertex -9.64805 2.22836 -2
      vertex -7.78368 5.25199 -2
      vertex -9.27646 2.10222 -2
    endloop
  endfacet
  facet normal 0 0 -1
    outer loop
      vertex -9.27646 2.10222 -2
      vertex -7.78368 5.25199 -2
      vertex -8.89158 2.02567 -2
    endloop
  endfacet
  facet normal 0 0 -1
    outer loop
      vertex -8.89158 2.02567 -2
      vertex -7.78368 5.25199 -2
      vertex -8.5 2 -2
    endloop
  endfacet
  facet normal -0 0 -1
    outer loop
      vertex -7.40357 5.20583 -2
      vertex -8.5 2 -2
      vertex -7.78368 5.25199 -2
    endloop
  endfacet
  facet normal 0 0 -1
    outer loop
      vertex 8.42388 5.61732 -2
      vertex 11.5 5 -2
      vertex 11.4743 4.60842 -2
    endloop
  endfacet
  facet normal 0 0 -1
    outer loop
      vertex 11.5 5 -2
      vertex 8.5 6 -2
      vertex 11.5 7 -2
    endloop
  endfacet
  facet normal 0 0 -1
    outer loop
      vertex 8.42388 5.61732 -2
      vertex 11.4743 4.60842 -2
      vertex 11.3978 4.22354 -2
    endloop
  endfacet
  facet normal 0 0 -1
    outer loop
      vertex 8.42388 6.38268 -2
      vertex 11.5 7 -2
      vertex 8.5 6 -2
    endloop
  endfacet
  facet normal 0 0 -1
    outer loop
      vertex 8.42388 5.61732 -2
      vertex 11.3978 4.22354 -2
      vertex 11.2716 3.85195 -2
    endloop
  endfacet
  facet normal -0 0 -1
    outer loop
      vertex 11.5 7 -2
      vertex 8.42388 6.38268 -2
      vertex 11.4743 7.39158 -2
    endloop
  endfacet
  facet normal 0 0 -1
    outer loop
      vertex 8.42388 5.61732 -2
      vertex 11.2716 3.85195 -2
      vertex 11.0981 3.5 -2
    endloop
  endfacet
  facet normal -0 0 -1
    outer loop
      vertex 11.4743 7.39158 -2
      vertex 8.42388 6.38268 -2
      vertex 11.3978 7.77646 -2
    endloop
  endfacet
  facet normal 0 0 -1
    outer loop
      vertex 8.42388 5.61732 -2
      vertex 11.0981 3.5 -2
      vertex 10.8801 3.17372 -2
    endloop
  endfacet
  facet normal -0 0 -1
    outer loop
      vertex 11.3978 7.77646 -2
      vertex 8.42388 6.38268 -2
      vertex 11.2716 8.14805 -2
    endloop
  endfacet
  facet normal 0 0 -1
    outer loop
      vertex 8.42388 5.61732 -2
      vertex 10.8801 3.17372 -2
      vertex 10.6213 2.87868 -2
    endloop
  endfacet
  facet normal 0 0 -1
    outer loop
      vertex 8.20711 6.70711 -2
      vertex 11.2716 8.14805 -2
      vertex 8.42388 6.38268 -2
    endloop
  endfacet
  facet normal 0 0 -1
    outer loop
      vertex 8.42388 5.61732 -2
      vertex 10.6213 2.87868 -2
      vertex 10.3263 2.61994 -2
    endloop
  endfacet
  facet normal -0 0 -1
    outer loop
      vertex 11.2716 8.14805 -2
      vertex 8.20711 6.70711 -2
      vertex 11.0981 8.5 -2
    endloop
  endfacet
  facet normal 0 0 -1
    outer loop
      vertex 8.42388 5.61732 -2
      vertex 10.3263 2.61994 -2
      vertex 10 2.40192 -2
    endloop
  endfacet
  facet normal -0 0 -1
    outer loop
      vertex 11.0981 8.5 -2
      vertex 8.20711 6.70711 -2
      vertex 10.8801 8.82628 -2
    endloop
  endfacet
  facet normal 0 0 -1
    outer loop
      vertex 8.42388 5.61732 -2
      vertex 10 2.40192 -2
      vertex 9.64805 2.22836 -2
    endloop
  endfacet
  facet normal -0 0 -1
    outer loop
      vertex 10.8801 8.82628 -2
      vertex 8.20711 6.70711 -2
      vertex 10.6213 9.12132 -2
    endloop
  endfacet
  facet normal 0 0 -1
    outer loop
      vertex 8.42388 5.61732 -2
      vertex 9.64805 2.22836 -2
      vertex 9.27646 2.10222 -2
    endloop
  endfacet
  facet normal -0 0 -1
    outer loop
      vertex 10.6213 9.12132 -2
      vertex 8.20711 6.70711 -2
      vertex 10.3263 9.38006 -2
    endloop
  endfacet
  facet normal 0 0 -1
    outer loop
      vertex 8.42388 5.61732 -2
      vertex 9.27646 2.10222 -2
      vertex 8.89158 2.02567 -2
    endloop
  endfacet
  facet normal -0 0 -1
    outer loop
      vertex 10.3263 9.38006 -2
      vertex 8.20711 6.70711 -2
      vertex 10 9.59808 -2
    endloop
  endfacet
  facet normal 0 0 -1
    outer loop
      vertex 7.88268 5.07612 -2
      vertex 8.89158 2.02567 -2
      vertex 8.5 2 -2
    endloop
  endfacet
  facet normal -0 0 -1
    outer loop
      vertex 10 9.59808 -2
      vertex 8.20711 6.70711 -2
      vertex 9.64805 9.77164 -2
    endloop
  endfacet
  facet normal 0 0 -1
    outer loop
      vertex 7.88268 6.92388 -2
      vertex 9.64805 9.77164 -2
      vertex 8.20711 6.70711 -2
    endloop
  endfacet
  facet normal -0 0 -1
    outer loop
      vertex 9.64805 9.77164 -2
      vertex 7.88268 6.92388 -2
      vertex 9.27646 9.89778 -2
    endloop
  endfacet
  facet normal -0 0 -1
    outer loop
      vertex 9.27646 9.89778 -2
      vertex 7.88268 6.92388 -2
      vertex 8.89158 9.97433 -2
    endloop
  endfacet
  facet normal -0 0 -1
    outer loop
      vertex 8.89158 9.97433 -2
      vertex 7.88268 6.92388 -2
      vertex 8.5 10 -2
    endloop
  endfacet
  facet normal 0 0 -1
    outer loop
      vertex 7.5 7 -2
      vertex 8.5 10 -2
      vertex 7.88268 6.92388 -2
    endloop
  endfacet
  facet normal 0 0 -1
    outer loop
      vertex 7.11732 6.92388 -2
      vertex 8.5 10 -2
      vertex 7.5 7 -2
    endloop
  endfacet
  facet normal 0 0 -1
    outer loop
      vertex 6.79289 6.70711 -2
      vertex 8.5 10 -2
      vertex 7.11732 6.92388 -2
    endloop
  endfacet
  facet normal 0 0 -1
    outer loop
      vertex -6.79163 6.37178 -2
      vertex 6.79289 6.70711 -2
      vertex 6.57612 6.38268 -2
    endloop
  endfacet
  facet normal 0 0 -1
    outer loop
      vertex -6.7 6 -2
      vertex 6.57612 6.38268 -2
      vertex 6.5 6 -2
    endloop
  endfacet
  facet normal 0 0 -1
    outer loop
      vertex -6.79163 6.37178 -2
      vertex 6.57612 6.38268 -2
      vertex -6.7 6 -2
    endloop
  endfacet
  facet normal -0 0 -1
    outer loop
      vertex 6.79289 6.70711 -2
      vertex -6.79163 6.37178 -2
      vertex -8.5 10 -2
    endloop
  endfacet
  facet normal 0 0 -1
    outer loop
      vertex -8.5 10 -2
      vertex -6.79163 6.37178 -2
      vertex -7.04555 6.65839 -2
    endloop
  endfacet
  facet normal 0 0 -1
    outer loop
      vertex -8.5 10 -2
      vertex -7.04555 6.65839 -2
      vertex -7.40357 6.79417 -2
    endloop
  endfacet
  facet normal 0 0 -1
    outer loop
      vertex -8.5 10 -2
      vertex -7.40357 6.79417 -2
      vertex -7.78368 6.74801 -2
    endloop
  endfacet
  facet normal 0 0 -1
    outer loop
      vertex 6.79289 6.70711 -2
      vertex -8.5 10 -2
      vertex 8.5 10 -2
    endloop
  endfacet
  facet normal 0 0 -1
    outer loop
      vertex -9.64805 9.77164 -2
      vertex -7.78368 6.74801 -2
      vertex -8.09881 6.5305 -2
    endloop
  endfacet
  facet normal 0 0 -1
    outer loop
      vertex -11.4743 7.39158 -2
      vertex -8.09881 6.5305 -2
      vertex -8.27675 6.19145 -2
    endloop
  endfacet
  facet normal -0 0 -1
    outer loop
      vertex -7.78368 5.25199 -2
      vertex -9.64805 2.22836 -2
      vertex -8.09881 5.4695 -2
    endloop
  endfacet
  facet normal 0 0 -1
    outer loop
      vertex -10 2.40192 -2
      vertex -8.09881 5.4695 -2
      vertex -9.64805 2.22836 -2
    endloop
  endfacet
  facet normal 0 0 -1
    outer loop
      vertex -11.5 7 -2
      vertex -8.27675 6.19145 -2
      vertex -11.5 5 -2
    endloop
  endfacet
  facet normal 0 0 -1
    outer loop
      vertex -10.3263 2.61994 -2
      vertex -8.09881 5.4695 -2
      vertex -10 2.40192 -2
    endloop
  endfacet
  facet normal 0 -0 -1
    outer loop
      vertex -11.4743 7.39158 -2
      vertex -8.27675 6.19145 -2
      vertex -11.5 7 -2
    endloop
  endfacet
  facet normal 0 0 -1
    outer loop
      vertex -10.6213 2.87868 -2
      vertex -8.09881 5.4695 -2
      vertex -10.3263 2.61994 -2
    endloop
  endfacet
  facet normal 0 0 -1
    outer loop
      vertex -7.78368 6.74801 -2
      vertex -8.89158 9.97433 -2
      vertex -8.5 10 -2
    endloop
  endfacet
  facet normal 0 0 -1
    outer loop
      vertex -10.8801 3.17372 -2
      vertex -8.09881 5.4695 -2
      vertex -10.6213 2.87868 -2
    endloop
  endfacet
  facet normal 0 0 -1
    outer loop
      vertex -7.78368 6.74801 -2
      vertex -9.27646 9.89778 -2
      vertex -8.89158 9.97433 -2
    endloop
  endfacet
  facet normal 0 0 -1
    outer loop
      vertex -11.0981 3.5 -2
      vertex -8.09881 5.4695 -2
      vertex -10.8801 3.17372 -2
    endloop
  endfacet
  facet normal 0 0 -1
    outer loop
      vertex -7.78368 6.74801 -2
      vertex -9.64805 9.77164 -2
      vertex -9.27646 9.89778 -2
    endloop
  endfacet
  facet normal 0 0 -1
    outer loop
      vertex -11.2716 3.85195 -2
      vertex -8.09881 5.4695 -2
      vertex -11.0981 3.5 -2
    endloop
  endfacet
  facet normal 0 0 -1
    outer loop
      vertex -8.09881 6.5305 -2
      vertex -10 9.59808 -2
      vertex -9.64805 9.77164 -2
    endloop
  endfacet
  facet normal 0 0 -1
    outer loop
      vertex -11.3978 4.22354 -2
      vertex -8.09881 5.4695 -2
      vertex -11.2716 3.85195 -2
    endloop
  endfacet
  facet normal 0 0 -1
    outer loop
      vertex -8.09881 6.5305 -2
      vertex -10.3263 9.38006 -2
      vertex -10 9.59808 -2
    endloop
  endfacet
  facet normal 0 0 -1
    outer loop
      vertex -11.4743 4.60842 -2
      vertex -8.09881 5.4695 -2
      vertex -11.3978 4.22354 -2
    endloop
  endfacet
  facet normal 0 0 -1
    outer loop
      vertex -8.09881 6.5305 -2
      vertex -10.6213 9.12132 -2
      vertex -10.3263 9.38006 -2
    endloop
  endfacet
  facet normal -0 0 -1
    outer loop
      vertex -8.09881 5.4695 -2
      vertex -11.4743 4.60842 -2
      vertex -8.27675 5.80855 -2
    endloop
  endfacet
  facet normal 0 0 -1
    outer loop
      vertex -8.09881 6.5305 -2
      vertex -10.8801 8.82628 -2
      vertex -10.6213 9.12132 -2
    endloop
  endfacet
  facet normal 0 0 -1
    outer loop
      vertex -11.5 5 -2
      vertex -8.27675 5.80855 -2
      vertex -11.4743 4.60842 -2
    endloop
  endfacet
  facet normal 0 0 -1
    outer loop
      vertex -8.09881 6.5305 -2
      vertex -11.0981 8.5 -2
      vertex -10.8801 8.82628 -2
    endloop
  endfacet
  facet normal -0 0 -1
    outer loop
      vertex -8.27675 5.80855 -2
      vertex -11.5 5 -2
      vertex -8.27675 6.19145 -2
    endloop
  endfacet
  facet normal 0 0 -1
    outer loop
      vertex -8.09881 6.5305 -2
      vertex -11.2716 8.14805 -2
      vertex -11.0981 8.5 -2
    endloop
  endfacet
  facet normal 0 0 -1
    outer loop
      vertex -8.09881 6.5305 -2
      vertex -11.3978 7.77646 -2
      vertex -11.2716 8.14805 -2
    endloop
  endfacet
  facet normal 0 0 -1
    outer loop
      vertex -8.09881 6.5305 -2
      vertex -11.4743 7.39158 -2
      vertex -11.3978 7.77646 -2
    endloop
  endfacet
  facet normal -0.442283 0.896875 0
    outer loop
      vertex -9.64805 9.77164 -2
      vertex -10 9.59808 2
      vertex -9.64805 9.77164 2
    endloop
  endfacet
  facet normal -0.442283 0.896875 0
    outer loop
      vertex -10 9.59808 2
      vertex -9.64805 9.77164 -2
      vertex -10 9.59808 -2
    endloop
  endfacet
  facet normal -0.659392 0.751799 0
    outer loop
      vertex -10.3263 9.38006 -2
      vertex -10.6213 9.12132 2
      vertex -10.3263 9.38006 2
    endloop
  endfacet
  facet normal -0.659392 0.751799 0
    outer loop
      vertex -10.6213 9.12132 2
      vertex -10.3263 9.38006 -2
      vertex -10.6213 9.12132 -2
    endloop
  endfacet
  facet normal -0.195072 -0.980789 0
    outer loop
      vertex -9.27646 2.10222 -2
      vertex -8.89158 2.02567 2
      vertex -9.27646 2.10222 2
    endloop
  endfacet
  facet normal -0.195072 -0.980789 -0
    outer loop
      vertex -8.89158 2.02567 2
      vertex -9.27646 2.10222 -2
      vertex -8.89158 2.02567 -2
    endloop
  endfacet
  facet normal -0.555558 -0.831477 0
    outer loop
      vertex -10.3263 2.61994 -2
      vertex -10 2.40192 2
      vertex -10.3263 2.61994 2
    endloop
  endfacet
  facet normal -0.555558 -0.831477 -0
    outer loop
      vertex -10 2.40192 2
      vertex -10.3263 2.61994 -2
      vertex -10 2.40192 -2
    endloop
  endfacet
  facet normal -0.659392 -0.751799 0
    outer loop
      vertex -10.6213 2.87868 -2
      vertex -10.3263 2.61994 2
      vertex -10.6213 2.87868 2
    endloop
  endfacet
  facet normal -0.659392 -0.751799 -0
    outer loop
      vertex -10.3263 2.61994 2
      vertex -10.6213 2.87868 -2
      vertex -10.3263 2.61994 -2
    endloop
  endfacet
  facet normal -0.896936 -0.44216 0
    outer loop
      vertex -11.0981 3.5 -2
      vertex -11.2716 3.85195 2
      vertex -11.2716 3.85195 -2
    endloop
  endfacet
  facet normal -0.896936 -0.44216 0
    outer loop
      vertex -11.2716 3.85195 2
      vertex -11.0981 3.5 -2
      vertex -11.0981 3.5 2
    endloop
  endfacet
  facet normal -0.946882 -0.321582 0
    outer loop
      vertex -11.2716 3.85195 -2
      vertex -11.3978 4.22354 2
      vertex -11.3978 4.22354 -2
    endloop
  endfacet
  facet normal -0.946882 -0.321582 0
    outer loop
      vertex -11.3978 4.22354 2
      vertex -11.2716 3.85195 -2
      vertex -11.2716 3.85195 2
    endloop
  endfacet
  facet normal 0.831485 -0.555547 0
    outer loop
      vertex 10.8801 3.17372 2
      vertex 11.0981 3.5 -2
      vertex 11.0981 3.5 2
    endloop
  endfacet
  facet normal 0.831485 -0.555547 0
    outer loop
      vertex 11.0981 3.5 -2
      vertex 10.8801 3.17372 2
      vertex 10.8801 3.17372 -2
    endloop
  endfacet
  facet normal 0.946882 0.321582 0
    outer loop
      vertex 11.3978 7.77646 2
      vertex 11.2716 8.14805 -2
      vertex 11.2716 8.14805 2
    endloop
  endfacet
  facet normal 0.946882 0.321582 0
    outer loop
      vertex 11.2716 8.14805 -2
      vertex 11.3978 7.77646 2
      vertex 11.3978 7.77646 -2
    endloop
  endfacet
  facet normal 0.442283 0.896875 -0
    outer loop
      vertex 10 9.59808 -2
      vertex 9.64805 9.77164 2
      vertex 10 9.59808 2
    endloop
  endfacet
  facet normal 0.442283 0.896875 0
    outer loop
      vertex 9.64805 9.77164 2
      vertex 10 9.59808 -2
      vertex 9.64805 9.77164 -2
    endloop
  endfacet
  facet normal 0.555558 0.831477 -0
    outer loop
      vertex 10.3263 9.38006 -2
      vertex 10 9.59808 2
      vertex 10.3263 9.38006 2
    endloop
  endfacet
  facet normal 0.555558 0.831477 0
    outer loop
      vertex 10 9.59808 2
      vertex 10.3263 9.38006 -2
      vertex 10 9.59808 -2
    endloop
  endfacet
  facet normal 0.659392 0.751799 -0
    outer loop
      vertex 10.6213 9.12132 -2
      vertex 10.3263 9.38006 2
      vertex 10.6213 9.12132 2
    endloop
  endfacet
  facet normal 0.659392 0.751799 0
    outer loop
      vertex 10.3263 9.38006 2
      vertex 10.6213 9.12132 -2
      vertex 10.3263 9.38006 -2
    endloop
  endfacet
  facet normal -0.980813 0.19495 0
    outer loop
      vertex -11.4743 7.39158 -2
      vertex -11.3978 7.77646 2
      vertex -11.3978 7.77646 -2
    endloop
  endfacet
  facet normal -0.980813 0.19495 0
    outer loop
      vertex -11.3978 7.77646 2
      vertex -11.4743 7.39158 -2
      vertex -11.4743 7.39158 2
    endloop
  endfacet
  facet normal -0.831485 0.555547 0
    outer loop
      vertex -11.0981 8.5 -2
      vertex -10.8801 8.82628 2
      vertex -10.8801 8.82628 -2
    endloop
  endfacet
  facet normal -0.831485 0.555547 0
    outer loop
      vertex -10.8801 8.82628 2
      vertex -11.0981 8.5 -2
      vertex -11.0981 8.5 2
    endloop
  endfacet
  facet normal -0.751768 0.659428 0
    outer loop
      vertex -10.8801 8.82628 -2
      vertex -10.6213 9.12132 2
      vertex -10.6213 9.12132 -2
    endloop
  endfacet
  facet normal -0.751768 0.659428 0
    outer loop
      vertex -10.6213 9.12132 2
      vertex -10.8801 8.82628 -2
      vertex -10.8801 8.82628 2
    endloop
  endfacet
  facet normal -0.555558 0.831477 0
    outer loop
      vertex -10 9.59808 -2
      vertex -10.3263 9.38006 2
      vertex -10 9.59808 2
    endloop
  endfacet
  facet normal -0.555558 0.831477 0
    outer loop
      vertex -10.3263 9.38006 2
      vertex -10 9.59808 -2
      vertex -10.3263 9.38006 -2
    endloop
  endfacet
  facet normal -0.321444 -0.946928 0
    outer loop
      vertex -9.64805 2.22836 -2
      vertex -9.27646 2.10222 2
      vertex -9.64805 2.22836 2
    endloop
  endfacet
  facet normal -0.321444 -0.946928 -0
    outer loop
      vertex -9.27646 2.10222 2
      vertex -9.64805 2.22836 -2
      vertex -9.27646 2.10222 -2
    endloop
  endfacet
  facet normal -0.751768 -0.659428 0
    outer loop
      vertex -10.6213 2.87868 -2
      vertex -10.8801 3.17372 2
      vertex -10.8801 3.17372 -2
    endloop
  endfacet
  facet normal -0.751768 -0.659428 0
    outer loop
      vertex -10.8801 3.17372 2
      vertex -10.6213 2.87868 -2
      vertex -10.6213 2.87868 2
    endloop
  endfacet
  facet normal 0.321444 0.946928 -0
    outer loop
      vertex 9.64805 9.77164 -2
      vertex 9.27646 9.89778 2
      vertex 9.64805 9.77164 2
    endloop
  endfacet
  facet normal 0.321444 0.946928 0
    outer loop
      vertex 9.27646 9.89778 2
      vertex 9.64805 9.77164 -2
      vertex 9.27646 9.89778 -2
    endloop
  endfacet
  facet normal -0.997327 -0.0730643 0
    outer loop
      vertex 10.2 6 -0.5
      vertex 10.1712 6.39312 2
      vertex 10.1712 6.39312 -0.5
    endloop
  endfacet
  facet normal -0.997327 -0.0730643 0
    outer loop
      vertex 10.1712 6.39312 2
      vertex 10.2 6 -0.5
      vertex 10.2 6 2
    endloop
  endfacet
  facet normal 1 -0 0
    outer loop
      vertex 4.8072 5.80291 2
      vertex 4.8072 6.19709 -0.5
      vertex 4.8072 6.19709 2
    endloop
  endfacet
  facet normal 1 0 0
    outer loop
      vertex 4.8072 6.19709 -0.5
      vertex 4.8072 5.80291 2
      vertex 4.8072 5.80291 -0.5
    endloop
  endfacet
  facet normal -0.0365322 -0.999332 0
    outer loop
      vertex 7.40139 8.6982 -0.5
      vertex 7.7953 8.6838 2
      vertex 7.40139 8.6982 2
    endloop
  endfacet
  facet normal -0.0365322 -0.999332 -0
    outer loop
      vertex 7.7953 8.6838 2
      vertex 7.40139 8.6982 -0.5
      vertex 7.7953 8.6838 -0.5
    endloop
  endfacet
  facet normal -0.694089 -0.71989 0
    outer loop
      vertex 9.22712 8.07535 -0.5
      vertex 9.51088 7.80176 2
      vertex 9.22712 8.07535 2
    endloop
  endfacet
  facet normal -0.694089 -0.71989 -0
    outer loop
      vertex 9.51088 7.80176 2
      vertex 9.22712 8.07535 -0.5
      vertex 9.51088 7.80176 -0.5
    endloop
  endfacet
  facet normal 0.744772 -0.667319 0
    outer loop
      vertex 5.36296 7.65017 2
      vertex 5.626 7.94374 -0.5
      vertex 5.626 7.94374 2
    endloop
  endfacet
  facet normal 0.744772 -0.667319 0
    outer loop
      vertex 5.626 7.94374 -0.5
      vertex 5.36296 7.65017 2
      vertex 5.36296 7.65017 -0.5
    endloop
  endfacet
  facet normal 0.391125 -0.920338 0
    outer loop
      vertex 6.26545 8.40122 -0.5
      vertex 6.62822 8.55539 2
      vertex 6.26545 8.40122 2
    endloop
  endfacet
  facet normal 0.391125 -0.920338 0
    outer loop
      vertex 6.62822 8.55539 2
      vertex 6.26545 8.40122 -0.5
      vertex 6.62822 8.55539 -0.5
    endloop
  endfacet
  facet normal -0.791498 0.611172 0
    outer loop
      vertex 9.51088 4.19824 -0.5
      vertex 9.75179 4.51023 2
      vertex 9.75179 4.51023 -0.5
    endloop
  endfacet
  facet normal -0.791498 0.611172 0
    outer loop
      vertex 9.75179 4.51023 2
      vertex 9.51088 4.19824 -0.5
      vertex 9.51088 4.19824 2
    endloop
  endfacet
  facet normal -0.872045 0.489425 0
    outer loop
      vertex 9.75179 4.51023 -0.5
      vertex 9.94471 4.85397 2
      vertex 9.94471 4.85397 -0.5
    endloop
  endfacet
  facet normal -0.872045 0.489425 0
    outer loop
      vertex 9.94471 4.85397 2
      vertex 9.75179 4.51023 -0.5
      vertex 9.75179 4.51023 2
    endloop
  endfacet
  facet normal 0 0 1
    outer loop
      vertex 8.5 6 -0.5
      vertex 10.2 6 -0.5
      vertex 10.1712 6.39312 -0.5
    endloop
  endfacet
  facet normal 0 0 1
    outer loop
      vertex 8.42388 6.38268 -0.5
      vertex 10.1712 6.39312 -0.5
      vertex 10.0855 6.77787 -0.5
    endloop
  endfacet
  facet normal 0 0 1
    outer loop
      vertex 10.2 6 -0.5
      vertex 8.5 6 -0.5
      vertex 10.1712 5.60688 -0.5
    endloop
  endfacet
  facet normal 0 0 1
    outer loop
      vertex 8.42388 6.38268 -0.5
      vertex 10.0855 6.77787 -0.5
      vertex 9.94471 7.14603 -0.5
    endloop
  endfacet
  facet normal -0 0 1
    outer loop
      vertex 8.42388 5.61732 -0.5
      vertex 10.1712 5.60688 -0.5
      vertex 8.5 6 -0.5
    endloop
  endfacet
  facet normal 0 0 1
    outer loop
      vertex 8.42388 6.38268 -0.5
      vertex 9.94471 7.14603 -0.5
      vertex 9.75179 7.48977 -0.5
    endloop
  endfacet
  facet normal 0 0 1
    outer loop
      vertex 10.1712 5.60688 -0.5
      vertex 8.42388 5.61732 -0.5
      vertex 10.0855 5.22213 -0.5
    endloop
  endfacet
  facet normal 0 0 1
    outer loop
      vertex 8.20711 6.70711 -0.5
      vertex 9.75179 7.48977 -0.5
      vertex 9.51088 7.80176 -0.5
    endloop
  endfacet
  facet normal 0 0 1
    outer loop
      vertex 10.0855 5.22213 -0.5
      vertex 8.42388 5.61732 -0.5
      vertex 9.94471 4.85397 -0.5
    endloop
  endfacet
  facet normal 0 0 1
    outer loop
      vertex 8.20711 6.70711 -0.5
      vertex 9.51088 7.80176 -0.5
      vertex 9.22712 8.07535 -0.5
    endloop
  endfacet
  facet normal 0 0 1
    outer loop
      vertex 9.94471 4.85397 -0.5
      vertex 8.42388 5.61732 -0.5
      vertex 9.75179 4.51023 -0.5
    endloop
  endfacet
  facet normal 0 0 1
    outer loop
      vertex 8.20711 6.70711 -0.5
      vertex 9.22712 8.07535 -0.5
      vertex 8.90654 8.3047 -0.5
    endloop
  endfacet
  facet normal -0 0 1
    outer loop
      vertex 8.20711 5.29289 -0.5
      vertex 9.75179 4.51023 -0.5
      vertex 8.42388 5.61732 -0.5
    endloop
  endfacet
  facet normal 0 0 1
    outer loop
      vertex 7.88268 6.92388 -0.5
      vertex 8.90654 8.3047 -0.5
      vertex 8.55598 8.48493 -0.5
    endloop
  endfacet
  facet normal 0 0 1
    outer loop
      vertex 9.75179 4.51023 -0.5
      vertex 8.20711 5.29289 -0.5
      vertex 9.51088 4.19824 -0.5
    endloop
  endfacet
  facet normal 0 0 1
    outer loop
      vertex 9.51088 4.19824 -0.5
      vertex 8.20711 5.29289 -0.5
      vertex 9.22712 3.92465 -0.5
    endloop
  endfacet
  facet normal 0 0 1
    outer loop
      vertex 10.1712 6.39312 -0.5
      vertex 8.42388 6.38268 -0.5
      vertex 8.5 6 -0.5
    endloop
  endfacet
  facet normal 0 0 1
    outer loop
      vertex 9.75179 7.48977 -0.5
      vertex 8.20711 6.70711 -0.5
      vertex 8.42388 6.38268 -0.5
    endloop
  endfacet
  facet normal 0 0 1
    outer loop
      vertex 7.88268 6.92388 -0.5
      vertex 8.55598 8.48493 -0.5
      vertex 8.18292 8.61221 -0.5
    endloop
  endfacet
  facet normal 0 0 1
    outer loop
      vertex 8.90654 8.3047 -0.5
      vertex 7.88268 6.92388 -0.5
      vertex 8.20711 6.70711 -0.5
    endloop
  endfacet
  facet normal 0 0 1
    outer loop
      vertex 7.5 7 -0.5
      vertex 8.18292 8.61221 -0.5
      vertex 7.7953 8.6838 -0.5
    endloop
  endfacet
  facet normal 0 0 1
    outer loop
      vertex 8.18292 8.61221 -0.5
      vertex 7.5 7 -0.5
      vertex 7.88268 6.92388 -0.5
    endloop
  endfacet
  facet normal 0 0 1
    outer loop
      vertex 7.40139 8.6982 -0.5
      vertex 7.5 7 -0.5
      vertex 7.7953 8.6838 -0.5
    endloop
  endfacet
  facet normal -0 0 1
    outer loop
      vertex 7.00958 8.65509 -0.5
      vertex 7.5 7 -0.5
      vertex 7.40139 8.6982 -0.5
    endloop
  endfacet
  facet normal 0 0 1
    outer loop
      vertex 7.5 7 -0.5
      vertex 7.00958 8.65509 -0.5
      vertex 7.11732 6.92388 -0.5
    endloop
  endfacet
  facet normal -0 0 1
    outer loop
      vertex 6.62822 8.55539 -0.5
      vertex 7.11732 6.92388 -0.5
      vertex 7.00958 8.65509 -0.5
    endloop
  endfacet
  facet normal -0 0 1
    outer loop
      vertex 6.26545 8.40122 -0.5
      vertex 7.11732 6.92388 -0.5
      vertex 6.62822 8.55539 -0.5
    endloop
  endfacet
  facet normal -0 0 1
    outer loop
      vertex 5.92898 8.19588 -0.5
      vertex 7.11732 6.92388 -0.5
      vertex 6.26545 8.40122 -0.5
    endloop
  endfacet
  facet normal 0 0 1
    outer loop
      vertex 7.11732 6.92388 -0.5
      vertex 5.92898 8.19588 -0.5
      vertex 6.79289 6.70711 -0.5
    endloop
  endfacet
  facet normal -0 0 1
    outer loop
      vertex 5.626 7.94374 -0.5
      vertex 6.79289 6.70711 -0.5
      vertex 5.92898 8.19588 -0.5
    endloop
  endfacet
  facet normal 0 0 1
    outer loop
      vertex 9.22712 3.92465 -0.5
      vertex 8.20711 5.29289 -0.5
      vertex 8.90654 3.6953 -0.5
    endloop
  endfacet
  facet normal -0 0 1
    outer loop
      vertex 7.88268 5.07612 -0.5
      vertex 8.90654 3.6953 -0.5
      vertex 8.20711 5.29289 -0.5
    endloop
  endfacet
  facet normal 0 0 1
    outer loop
      vertex 8.90654 3.6953 -0.5
      vertex 7.88268 5.07612 -0.5
      vertex 8.55598 3.51507 -0.5
    endloop
  endfacet
  facet normal 0 0 1
    outer loop
      vertex 8.55598 3.51507 -0.5
      vertex 7.88268 5.07612 -0.5
      vertex 8.18292 3.38779 -0.5
    endloop
  endfacet
  facet normal -0 0 1
    outer loop
      vertex 7.5 5 -0.5
      vertex 8.18292 3.38779 -0.5
      vertex 7.88268 5.07612 -0.5
    endloop
  endfacet
  facet normal 0 0 1
    outer loop
      vertex 8.18292 3.38779 -0.5
      vertex 7.5 5 -0.5
      vertex 7.7953 3.3162 -0.5
    endloop
  endfacet
  facet normal 0 0 1
    outer loop
      vertex 7.5 5 -0.5
      vertex 7.40139 3.3018 -0.5
      vertex 7.7953 3.3162 -0.5
    endloop
  endfacet
  facet normal 0 0 1
    outer loop
      vertex 7.00958 3.34491 -0.5
      vertex 7.5 5 -0.5
      vertex 7.11732 5.07612 -0.5
    endloop
  endfacet
  facet normal 0 0 1
    outer loop
      vertex 7.5 5 -0.5
      vertex 7.00958 3.34491 -0.5
      vertex 7.40139 3.3018 -0.5
    endloop
  endfacet
  facet normal 0 0 1
    outer loop
      vertex 5.92898 3.80412 -0.5
      vertex 7.11732 5.07612 -0.5
      vertex 6.79289 5.29289 -0.5
    endloop
  endfacet
  facet normal 0 0 1
    outer loop
      vertex 7.11732 5.07612 -0.5
      vertex 6.62822 3.44461 -0.5
      vertex 7.00958 3.34491 -0.5
    endloop
  endfacet
  facet normal 0 0 1
    outer loop
      vertex 5.36296 4.34983 -0.5
      vertex 6.79289 5.29289 -0.5
      vertex 6.57612 5.61732 -0.5
    endloop
  endfacet
  facet normal 0 0 1
    outer loop
      vertex 4.86459 5.41294 -0.5
      vertex 6.57612 5.61732 -0.5
      vertex 6.5 6 -0.5
    endloop
  endfacet
  facet normal -0 0 1
    outer loop
      vertex 5.36296 7.65017 -0.5
      vertex 6.79289 6.70711 -0.5
      vertex 5.626 7.94374 -0.5
    endloop
  endfacet
  facet normal 0 0 1
    outer loop
      vertex 7.11732 5.07612 -0.5
      vertex 6.26545 3.59878 -0.5
      vertex 6.62822 3.44461 -0.5
    endloop
  endfacet
  facet normal 0 0 1
    outer loop
      vertex 6.79289 6.70711 -0.5
      vertex 5.36296 7.65017 -0.5
      vertex 6.57612 6.38268 -0.5
    endloop
  endfacet
  facet normal 0 0 1
    outer loop
      vertex 7.11732 5.07612 -0.5
      vertex 5.92898 3.80412 -0.5
      vertex 6.26545 3.59878 -0.5
    endloop
  endfacet
  facet normal -0 0 1
    outer loop
      vertex 5.14547 7.32143 -0.5
      vertex 6.57612 6.38268 -0.5
      vertex 5.36296 7.65017 -0.5
    endloop
  endfacet
  facet normal 0 0 1
    outer loop
      vertex 6.79289 5.29289 -0.5
      vertex 5.626 4.05626 -0.5
      vertex 5.92898 3.80412 -0.5
    endloop
  endfacet
  facet normal -0 0 1
    outer loop
      vertex 4.97816 6.96452 -0.5
      vertex 6.57612 6.38268 -0.5
      vertex 5.14547 7.32143 -0.5
    endloop
  endfacet
  facet normal 0 0 1
    outer loop
      vertex 6.79289 5.29289 -0.5
      vertex 5.36296 4.34983 -0.5
      vertex 5.626 4.05626 -0.5
    endloop
  endfacet
  facet normal -0 0 1
    outer loop
      vertex 4.86459 6.58706 -0.5
      vertex 6.57612 6.38268 -0.5
      vertex 4.97816 6.96452 -0.5
    endloop
  endfacet
  facet normal 0 0 1
    outer loop
      vertex 6.57612 5.61732 -0.5
      vertex 5.14547 4.67857 -0.5
      vertex 5.36296 4.34983 -0.5
    endloop
  endfacet
  facet normal 0 0 1
    outer loop
      vertex 6.57612 6.38268 -0.5
      vertex 4.86459 6.58706 -0.5
      vertex 6.5 6 -0.5
    endloop
  endfacet
  facet normal 0 0 1
    outer loop
      vertex 6.57612 5.61732 -0.5
      vertex 4.97816 5.03548 -0.5
      vertex 5.14547 4.67857 -0.5
    endloop
  endfacet
  facet normal -0 0 1
    outer loop
      vertex 4.8072 6.19709 -0.5
      vertex 6.5 6 -0.5
      vertex 4.86459 6.58706 -0.5
    endloop
  endfacet
  facet normal 0 0 1
    outer loop
      vertex 6.57612 5.61732 -0.5
      vertex 4.86459 5.41294 -0.5
      vertex 4.97816 5.03548 -0.5
    endloop
  endfacet
  facet normal 0 0 1
    outer loop
      vertex 4.8072 5.80291 -0.5
      vertex 6.5 6 -0.5
      vertex 4.8072 6.19709 -0.5
    endloop
  endfacet
  facet normal 0 0 1
    outer loop
      vertex 6.5 6 -0.5
      vertex 4.8072 5.80291 -0.5
      vertex 4.86459 5.41294 -0.5
    endloop
  endfacet
  facet normal -0.872045 -0.489425 0
    outer loop
      vertex 9.94471 7.14603 -0.5
      vertex 9.75179 7.48977 2
      vertex 9.75179 7.48977 -0.5
    endloop
  endfacet
  facet normal -0.872045 -0.489425 0
    outer loop
      vertex 9.75179 7.48977 2
      vertex 9.94471 7.14603 -0.5
      vertex 9.94471 7.14603 2
    endloop
  endfacet
  facet normal -0.791498 -0.611172 0
    outer loop
      vertex 9.75179 7.48977 -0.5
      vertex 9.51088 7.80176 2
      vertex 9.51088 7.80176 -0.5
    endloop
  endfacet
  facet normal -0.791498 -0.611172 0
    outer loop
      vertex 9.51088 7.80176 2
      vertex 9.75179 7.48977 -0.5
      vertex 9.75179 7.48977 2
    endloop
  endfacet
  facet normal -0.322902 -0.946432 0
    outer loop
      vertex 8.18292 8.61221 -0.5
      vertex 8.55598 8.48493 2
      vertex 8.18292 8.61221 2
    endloop
  endfacet
  facet normal -0.322902 -0.946432 -0
    outer loop
      vertex 8.55598 8.48493 2
      vertex 8.18292 8.61221 -0.5
      vertex 8.55598 8.48493 -0.5
    endloop
  endfacet
  facet normal -0.18162 -0.983369 0
    outer loop
      vertex 7.7953 8.6838 -0.5
      vertex 8.18292 8.61221 2
      vertex 7.7953 8.6838 2
    endloop
  endfacet
  facet normal -0.18162 -0.983369 -0
    outer loop
      vertex 8.18292 8.61221 2
      vertex 7.7953 8.6838 -0.5
      vertex 8.18292 8.61221 -0.5
    endloop
  endfacet
  facet normal -0.457232 -0.889348 0
    outer loop
      vertex 8.55598 8.48493 -0.5
      vertex 8.90654 8.3047 2
      vertex 8.55598 8.48493 2
    endloop
  endfacet
  facet normal -0.457232 -0.889348 -0
    outer loop
      vertex 8.90654 8.3047 2
      vertex 8.55598 8.48493 -0.5
      vertex 8.90654 8.3047 -0.5
    endloop
  endfacet
  facet normal 0.957594 -0.288121 0
    outer loop
      vertex 4.86459 6.58706 2
      vertex 4.97816 6.96452 -0.5
      vertex 4.97816 6.96452 2
    endloop
  endfacet
  facet normal 0.957594 -0.288121 0
    outer loop
      vertex 4.97816 6.96452 -0.5
      vertex 4.86459 6.58706 2
      vertex 4.86459 6.58706 -0.5
    endloop
  endfacet
  facet normal 0.834001 -0.551764 0
    outer loop
      vertex 5.14547 7.32143 2
      vertex 5.36296 7.65017 -0.5
      vertex 5.36296 7.65017 2
    endloop
  endfacet
  facet normal 0.834001 -0.551764 0
    outer loop
      vertex 5.36296 7.65017 -0.5
      vertex 5.14547 7.32143 2
      vertex 5.14547 7.32143 -0.5
    endloop
  endfacet
  facet normal 0.989344 -0.145597 0
    outer loop
      vertex 4.8072 6.19709 2
      vertex 4.86459 6.58706 -0.5
      vertex 4.86459 6.58706 2
    endloop
  endfacet
  facet normal 0.989344 -0.145597 0
    outer loop
      vertex 4.86459 6.58706 -0.5
      vertex 4.8072 6.19709 2
      vertex 4.8072 6.19709 -0.5
    endloop
  endfacet
  facet normal 0.520932 -0.853598 0
    outer loop
      vertex 5.92898 8.19588 -0.5
      vertex 6.26545 8.40122 2
      vertex 5.92898 8.19588 2
    endloop
  endfacet
  facet normal 0.520932 -0.853598 0
    outer loop
      vertex 6.26545 8.40122 2
      vertex 5.92898 8.19588 -0.5
      vertex 6.26545 8.40122 -0.5
    endloop
  endfacet
  facet normal 0.109368 -0.994001 0
    outer loop
      vertex 7.00958 8.65509 -0.5
      vertex 7.40139 8.6982 2
      vertex 7.00958 8.65509 2
    endloop
  endfacet
  facet normal 0.109368 -0.994001 0
    outer loop
      vertex 7.40139 8.6982 2
      vertex 7.00958 8.65509 -0.5
      vertex 7.40139 8.6982 -0.5
    endloop
  endfacet
  facet normal -0.997327 0.0730643 0
    outer loop
      vertex 10.1712 5.60688 -0.5
      vertex 10.2 6 2
      vertex 10.2 6 -0.5
    endloop
  endfacet
  facet normal -0.997327 0.0730643 0
    outer loop
      vertex 10.2 6 2
      vertex 10.1712 5.60688 -0.5
      vertex 10.1712 5.60688 2
    endloop
  endfacet
  facet normal -0.18162 0.983369 0
    outer loop
      vertex 8.18292 3.38779 -0.5
      vertex 7.7953 3.3162 2
      vertex 8.18292 3.38779 2
    endloop
  endfacet
  facet normal -0.18162 0.983369 0
    outer loop
      vertex 7.7953 3.3162 2
      vertex 8.18292 3.38779 -0.5
      vertex 7.7953 3.3162 -0.5
    endloop
  endfacet
  facet normal -0.58185 0.813296 0
    outer loop
      vertex 9.22712 3.92465 -0.5
      vertex 8.90654 3.6953 2
      vertex 9.22712 3.92465 2
    endloop
  endfacet
  facet normal -0.58185 0.813296 0
    outer loop
      vertex 8.90654 3.6953 2
      vertex 9.22712 3.92465 -0.5
      vertex 8.90654 3.6953 -0.5
    endloop
  endfacet
  facet normal 0.63967 0.768649 -0
    outer loop
      vertex 5.92898 3.80412 -0.5
      vertex 5.626 4.05626 2
      vertex 5.92898 3.80412 2
    endloop
  endfacet
  facet normal 0.63967 0.768649 0
    outer loop
      vertex 5.626 4.05626 2
      vertex 5.92898 3.80412 -0.5
      vertex 5.626 4.05626 -0.5
    endloop
  endfacet
  facet normal 0.834001 0.551764 0
    outer loop
      vertex 5.36296 4.34983 2
      vertex 5.14547 4.67857 -0.5
      vertex 5.14547 4.67857 2
    endloop
  endfacet
  facet normal 0.834001 0.551764 0
    outer loop
      vertex 5.14547 4.67857 -0.5
      vertex 5.36296 4.34983 2
      vertex 5.36296 4.34983 -0.5
    endloop
  endfacet
  facet normal 0.989344 0.145597 0
    outer loop
      vertex 4.86459 5.41294 2
      vertex 4.8072 5.80291 -0.5
      vertex 4.8072 5.80291 2
    endloop
  endfacet
  facet normal 0.989344 0.145597 0
    outer loop
      vertex 4.8072 5.80291 -0.5
      vertex 4.86459 5.41294 2
      vertex 4.86459 5.41294 -0.5
    endloop
  endfacet
  facet normal -0.934032 -0.357188 0
    outer loop
      vertex 10.0855 6.77787 -0.5
      vertex 9.94471 7.14603 2
      vertex 9.94471 7.14603 -0.5
    endloop
  endfacet
  facet normal -0.934032 -0.357188 0
    outer loop
      vertex 9.94471 7.14603 2
      vertex 10.0855 6.77787 -0.5
      vertex 10.0855 6.77787 2
    endloop
  endfacet
  facet normal -0.976079 -0.217414 0
    outer loop
      vertex 10.1712 6.39312 -0.5
      vertex 10.0855 6.77787 2
      vertex 10.0855 6.77787 -0.5
    endloop
  endfacet
  facet normal -0.976079 -0.217414 0
    outer loop
      vertex 10.0855 6.77787 2
      vertex 10.1712 6.39312 -0.5
      vertex 10.1712 6.39312 2
    endloop
  endfacet
  facet normal -0.58185 -0.813296 0
    outer loop
      vertex 8.90654 8.3047 -0.5
      vertex 9.22712 8.07535 2
      vertex 8.90654 8.3047 2
    endloop
  endfacet
  facet normal -0.58185 -0.813296 -0
    outer loop
      vertex 9.22712 8.07535 2
      vertex 8.90654 8.3047 -0.5
      vertex 9.22712 8.07535 -0.5
    endloop
  endfacet
  facet normal 0.905451 -0.424451 0
    outer loop
      vertex 4.97816 6.96452 2
      vertex 5.14547 7.32143 -0.5
      vertex 5.14547 7.32143 2
    endloop
  endfacet
  facet normal 0.905451 -0.424451 0
    outer loop
      vertex 5.14547 7.32143 -0.5
      vertex 4.97816 6.96452 2
      vertex 4.97816 6.96452 -0.5
    endloop
  endfacet
  facet normal 0.63967 -0.768649 0
    outer loop
      vertex 5.626 7.94374 -0.5
      vertex 5.92898 8.19588 2
      vertex 5.626 7.94374 2
    endloop
  endfacet
  facet normal 0.63967 -0.768649 0
    outer loop
      vertex 5.92898 8.19588 2
      vertex 5.626 7.94374 -0.5
      vertex 5.92898 8.19588 -0.5
    endloop
  endfacet
  facet normal 0.252932 -0.967484 0
    outer loop
      vertex 6.62822 8.55539 -0.5
      vertex 7.00958 8.65509 2
      vertex 6.62822 8.55539 2
    endloop
  endfacet
  facet normal 0.252932 -0.967484 0
    outer loop
      vertex 7.00958 8.65509 2
      vertex 6.62822 8.55539 -0.5
      vertex 7.00958 8.65509 -0.5
    endloop
  endfacet
  facet normal -0.322902 0.946432 0
    outer loop
      vertex 8.55598 3.51507 -0.5
      vertex 8.18292 3.38779 2
      vertex 8.55598 3.51507 2
    endloop
  endfacet
  facet normal -0.322902 0.946432 0
    outer loop
      vertex 8.18292 3.38779 2
      vertex 8.55598 3.51507 -0.5
      vertex 8.18292 3.38779 -0.5
    endloop
  endfacet
  facet normal -0.694089 0.71989 0
    outer loop
      vertex 9.51088 4.19824 -0.5
      vertex 9.22712 3.92465 2
      vertex 9.51088 4.19824 2
    endloop
  endfacet
  facet normal -0.694089 0.71989 0
    outer loop
      vertex 9.22712 3.92465 2
      vertex 9.51088 4.19824 -0.5
      vertex 9.22712 3.92465 -0.5
    endloop
  endfacet
  facet normal 0.520932 0.853598 -0
    outer loop
      vertex 6.26545 3.59878 -0.5
      vertex 5.92898 3.80412 2
      vertex 6.26545 3.59878 2
    endloop
  endfacet
  facet normal 0.520932 0.853598 0
    outer loop
      vertex 5.92898 3.80412 2
      vertex 6.26545 3.59878 -0.5
      vertex 5.92898 3.80412 -0.5
    endloop
  endfacet
  facet normal 0.252932 0.967484 -0
    outer loop
      vertex 7.00958 3.34491 -0.5
      vertex 6.62822 3.44461 2
      vertex 7.00958 3.34491 2
    endloop
  endfacet
  facet normal 0.252932 0.967484 0
    outer loop
      vertex 6.62822 3.44461 2
      vertex 7.00958 3.34491 -0.5
      vertex 6.62822 3.44461 -0.5
    endloop
  endfacet
  facet normal -0.0365322 0.999332 0
    outer loop
      vertex 7.7953 3.3162 -0.5
      vertex 7.40139 3.3018 2
      vertex 7.7953 3.3162 2
    endloop
  endfacet
  facet normal -0.0365322 0.999332 0
    outer loop
      vertex 7.40139 3.3018 2
      vertex 7.7953 3.3162 -0.5
      vertex 7.40139 3.3018 -0.5
    endloop
  endfacet
  facet normal 0.744772 0.667319 0
    outer loop
      vertex 5.626 4.05626 2
      vertex 5.36296 4.34983 -0.5
      vertex 5.36296 4.34983 2
    endloop
  endfacet
  facet normal 0.744772 0.667319 0
    outer loop
      vertex 5.36296 4.34983 -0.5
      vertex 5.626 4.05626 2
      vertex 5.626 4.05626 -0.5
    endloop
  endfacet
  facet normal 0.957594 0.288121 0
    outer loop
      vertex 4.97816 5.03548 2
      vertex 4.86459 5.41294 -0.5
      vertex 4.86459 5.41294 2
    endloop
  endfacet
  facet normal 0.957594 0.288121 0
    outer loop
      vertex 4.86459 5.41294 -0.5
      vertex 4.97816 5.03548 2
      vertex 4.97816 5.03548 -0.5
    endloop
  endfacet
  facet normal -0.457232 0.889348 0
    outer loop
      vertex 8.90654 3.6953 -0.5
      vertex 8.55598 3.51507 2
      vertex 8.90654 3.6953 2
    endloop
  endfacet
  facet normal -0.457232 0.889348 0
    outer loop
      vertex 8.55598 3.51507 2
      vertex 8.90654 3.6953 -0.5
      vertex 8.55598 3.51507 -0.5
    endloop
  endfacet
  facet normal -0.934032 0.357188 0
    outer loop
      vertex 9.94471 4.85397 -0.5
      vertex 10.0855 5.22213 2
      vertex 10.0855 5.22213 -0.5
    endloop
  endfacet
  facet normal -0.934032 0.357188 0
    outer loop
      vertex 10.0855 5.22213 2
      vertex 9.94471 4.85397 -0.5
      vertex 9.94471 4.85397 2
    endloop
  endfacet
  facet normal 0.391125 0.920338 -0
    outer loop
      vertex 6.62822 3.44461 -0.5
      vertex 6.26545 3.59878 2
      vertex 6.62822 3.44461 2
    endloop
  endfacet
  facet normal 0.391125 0.920338 0
    outer loop
      vertex 6.26545 3.59878 2
      vertex 6.62822 3.44461 -0.5
      vertex 6.26545 3.59878 -0.5
    endloop
  endfacet
  facet normal 0.109368 0.994001 -0
    outer loop
      vertex 7.40139 3.3018 -0.5
      vertex 7.00958 3.34491 2
      vertex 7.40139 3.3018 2
    endloop
  endfacet
  facet normal 0.109368 0.994001 0
    outer loop
      vertex 7.00958 3.34491 2
      vertex 7.40139 3.3018 -0.5
      vertex 7.00958 3.34491 -0.5
    endloop
  endfacet
  facet normal 0.905451 0.424451 0
    outer loop
      vertex 5.14547 4.67857 2
      vertex 4.97816 5.03548 -0.5
      vertex 4.97816 5.03548 2
    endloop
  endfacet
  facet normal 0.905451 0.424451 0
    outer loop
      vertex 4.97816 5.03548 -0.5
      vertex 5.14547 4.67857 2
      vertex 5.14547 4.67857 -0.5
    endloop
  endfacet
  facet normal -0.976079 0.217414 0
    outer loop
      vertex 10.0855 5.22213 -0.5
      vertex 10.1712 5.60688 2
      vertex 10.1712 5.60688 -0.5
    endloop
  endfacet
  facet normal -0.976079 0.217414 0
    outer loop
      vertex 10.1712 5.60688 2
      vertex 10.0855 5.22213 -0.5
      vertex 10.0855 5.22213 2
    endloop
  endfacet
  facet normal -0.980785 -0.195091 0
    outer loop
      vertex 8.5 6 -2
      vertex 8.42388 6.38268 -0.5
      vertex 8.42388 6.38268 -2
    endloop
  endfacet
  facet normal -0.980785 -0.195091 0
    outer loop
      vertex 8.42388 6.38268 -0.5
      vertex 8.5 6 -2
      vertex 8.5 6 -0.5
    endloop
  endfacet
  facet normal 0.980785 0.195091 0
    outer loop
      vertex 6.57612 5.61732 -0.5
      vertex 6.5 6 -2
      vertex 6.5 6 -0.5
    endloop
  endfacet
  facet normal 0.980785 0.195091 0
    outer loop
      vertex 6.5 6 -2
      vertex 6.57612 5.61732 -0.5
      vertex 6.57612 5.61732 -2
    endloop
  endfacet
  facet normal 0.195091 -0.980785 0
    outer loop
      vertex 7.11732 6.92388 -2
      vertex 7.5 7 -0.5
      vertex 7.11732 6.92388 -0.5
    endloop
  endfacet
  facet normal 0.195091 -0.980785 0
    outer loop
      vertex 7.5 7 -0.5
      vertex 7.11732 6.92388 -2
      vertex 7.5 7 -2
    endloop
  endfacet
  facet normal -0.195091 0.980785 0
    outer loop
      vertex 7.88268 5.07612 -2
      vertex 7.5 5 -0.5
      vertex 7.88268 5.07612 -0.5
    endloop
  endfacet
  facet normal -0.195091 0.980785 0
    outer loop
      vertex 7.5 5 -0.5
      vertex 7.88268 5.07612 -2
      vertex 7.5 5 -2
    endloop
  endfacet
  facet normal -0.555557 -0.831478 0
    outer loop
      vertex 7.88268 6.92388 -2
      vertex 8.20711 6.70711 -0.5
      vertex 7.88268 6.92388 -0.5
    endloop
  endfacet
  facet normal -0.555557 -0.831478 -0
    outer loop
      vertex 8.20711 6.70711 -0.5
      vertex 7.88268 6.92388 -2
      vertex 8.20711 6.70711 -2
    endloop
  endfacet
  facet normal -0.831478 -0.555557 0
    outer loop
      vertex 8.42388 6.38268 -2
      vertex 8.20711 6.70711 -0.5
      vertex 8.20711 6.70711 -2
    endloop
  endfacet
  facet normal -0.831478 -0.555557 0
    outer loop
      vertex 8.20711 6.70711 -0.5
      vertex 8.42388 6.38268 -2
      vertex 8.42388 6.38268 -0.5
    endloop
  endfacet
  facet normal -0.195091 -0.980785 0
    outer loop
      vertex 7.5 7 -2
      vertex 7.88268 6.92388 -0.5
      vertex 7.5 7 -0.5
    endloop
  endfacet
  facet normal -0.195091 -0.980785 -0
    outer loop
      vertex 7.88268 6.92388 -0.5
      vertex 7.5 7 -2
      vertex 7.88268 6.92388 -2
    endloop
  endfacet
  facet normal 0.831478 -0.555557 0
    outer loop
      vertex 6.57612 6.38268 -0.5
      vertex 6.79289 6.70711 -2
      vertex 6.79289 6.70711 -0.5
    endloop
  endfacet
  facet normal 0.831478 -0.555557 0
    outer loop
      vertex 6.79289 6.70711 -2
      vertex 6.57612 6.38268 -0.5
      vertex 6.57612 6.38268 -2
    endloop
  endfacet
  facet normal 0.980785 -0.195091 0
    outer loop
      vertex 6.5 6 -0.5
      vertex 6.57612 6.38268 -2
      vertex 6.57612 6.38268 -0.5
    endloop
  endfacet
  facet normal 0.980785 -0.195091 0
    outer loop
      vertex 6.57612 6.38268 -2
      vertex 6.5 6 -0.5
      vertex 6.5 6 -2
    endloop
  endfacet
  facet normal 0.555557 -0.831478 0
    outer loop
      vertex 6.79289 6.70711 -2
      vertex 7.11732 6.92388 -0.5
      vertex 6.79289 6.70711 -0.5
    endloop
  endfacet
  facet normal 0.555557 -0.831478 0
    outer loop
      vertex 7.11732 6.92388 -0.5
      vertex 6.79289 6.70711 -2
      vertex 7.11732 6.92388 -2
    endloop
  endfacet
  facet normal -0.980785 0.195091 0
    outer loop
      vertex 8.42388 5.61732 -2
      vertex 8.5 6 -0.5
      vertex 8.5 6 -2
    endloop
  endfacet
  facet normal -0.980785 0.195091 0
    outer loop
      vertex 8.5 6 -0.5
      vertex 8.42388 5.61732 -2
      vertex 8.42388 5.61732 -0.5
    endloop
  endfacet
  facet normal 0.831478 0.555557 0
    outer loop
      vertex 6.79289 5.29289 -0.5
      vertex 6.57612 5.61732 -2
      vertex 6.57612 5.61732 -0.5
    endloop
  endfacet
  facet normal 0.831478 0.555557 0
    outer loop
      vertex 6.57612 5.61732 -2
      vertex 6.79289 5.29289 -0.5
      vertex 6.79289 5.29289 -2
    endloop
  endfacet
  facet normal -0.555557 0.831478 0
    outer loop
      vertex 8.20711 5.29289 -2
      vertex 7.88268 5.07612 -0.5
      vertex 8.20711 5.29289 -0.5
    endloop
  endfacet
  facet normal -0.555557 0.831478 0
    outer loop
      vertex 7.88268 5.07612 -0.5
      vertex 8.20711 5.29289 -2
      vertex 7.88268 5.07612 -2
    endloop
  endfacet
  facet normal -0.831478 0.555557 0
    outer loop
      vertex 8.20711 5.29289 -2
      vertex 8.42388 5.61732 -0.5
      vertex 8.42388 5.61732 -2
    endloop
  endfacet
  facet normal -0.831478 0.555557 0
    outer loop
      vertex 8.42388 5.61732 -0.5
      vertex 8.20711 5.29289 -2
      vertex 8.20711 5.29289 -0.5
    endloop
  endfacet
  facet normal 0.195091 0.980785 -0
    outer loop
      vertex 7.5 5 -2
      vertex 7.11732 5.07612 -0.5
      vertex 7.5 5 -0.5
    endloop
  endfacet
  facet normal 0.195091 0.980785 0
    outer loop
      vertex 7.11732 5.07612 -0.5
      vertex 7.5 5 -2
      vertex 7.11732 5.07612 -2
    endloop
  endfacet
  facet normal 0.555557 0.831478 -0
    outer loop
      vertex 7.11732 5.07612 -2
      vertex 6.79289 5.29289 -0.5
      vertex 7.11732 5.07612 -0.5
    endloop
  endfacet
  facet normal 0.555557 0.831478 0
    outer loop
      vertex 6.79289 5.29289 -0.5
      vertex 7.11732 5.07612 -2
      vertex 6.79289 5.29289 -2
    endloop
  endfacet
  facet normal -0.970945 -0.239302 0
    outer loop
      vertex -6.7 6 -2
      vertex -6.79163 6.37178 2
      vertex -6.79163 6.37178 -2
    endloop
  endfacet
  facet normal -0.970945 -0.239302 0
    outer loop
      vertex -6.79163 6.37178 2
      vertex -6.7 6 -2
      vertex -6.7 6 2
    endloop
  endfacet
  facet normal 1 -0 0
    outer loop
      vertex -8.27675 5.80855 2
      vertex -8.27675 6.19145 -2
      vertex -8.27675 6.19145 2
    endloop
  endfacet
  facet normal 1 0 0
    outer loop
      vertex -8.27675 6.19145 -2
      vertex -8.27675 5.80855 2
      vertex -8.27675 5.80855 -2
    endloop
  endfacet
  facet normal 0.120553 -0.992707 0
    outer loop
      vertex -7.78368 6.74801 -2
      vertex -7.40357 6.79417 2
      vertex -7.78368 6.74801 2
    endloop
  endfacet
  facet normal 0.120553 -0.992707 0
    outer loop
      vertex -7.40357 6.79417 2
      vertex -7.78368 6.74801 -2
      vertex -7.40357 6.79417 -2
    endloop
  endfacet
  facet normal -0.354607 -0.935015 0
    outer loop
      vertex -7.40357 6.79417 -2
      vertex -7.04555 6.65839 2
      vertex -7.40357 6.79417 2
    endloop
  endfacet
  facet normal -0.354607 -0.935015 -0
    outer loop
      vertex -7.04555 6.65839 2
      vertex -7.40357 6.79417 -2
      vertex -7.04555 6.65839 -2
    endloop
  endfacet
  facet normal -0.748503 -0.663131 0
    outer loop
      vertex -6.79163 6.37178 -2
      vertex -7.04555 6.65839 2
      vertex -7.04555 6.65839 -2
    endloop
  endfacet
  facet normal -0.748503 -0.663131 0
    outer loop
      vertex -7.04555 6.65839 2
      vertex -6.79163 6.37178 -2
      vertex -6.79163 6.37178 2
    endloop
  endfacet
  facet normal 0.885464 -0.464708 0
    outer loop
      vertex -8.27675 6.19145 2
      vertex -8.09881 6.5305 -2
      vertex -8.09881 6.5305 2
    endloop
  endfacet
  facet normal 0.885464 -0.464708 0
    outer loop
      vertex -8.09881 6.5305 -2
      vertex -8.27675 6.19145 2
      vertex -8.27675 6.19145 -2
    endloop
  endfacet
  facet normal 0.56805 -0.822994 0
    outer loop
      vertex -8.09881 6.5305 -2
      vertex -7.78368 6.74801 2
      vertex -8.09881 6.5305 2
    endloop
  endfacet
  facet normal 0.56805 -0.822994 0
    outer loop
      vertex -7.78368 6.74801 2
      vertex -8.09881 6.5305 -2
      vertex -7.78368 6.74801 -2
    endloop
  endfacet
  facet normal -0.354607 0.935015 0
    outer loop
      vertex -7.04555 5.34161 -2
      vertex -7.40357 5.20583 2
      vertex -7.04555 5.34161 2
    endloop
  endfacet
  facet normal -0.354607 0.935015 0
    outer loop
      vertex -7.40357 5.20583 2
      vertex -7.04555 5.34161 -2
      vertex -7.40357 5.20583 -2
    endloop
  endfacet
  facet normal -0.970945 0.239302 0
    outer loop
      vertex -6.79163 5.62822 -2
      vertex -6.7 6 2
      vertex -6.7 6 -2
    endloop
  endfacet
  facet normal -0.970945 0.239302 0
    outer loop
      vertex -6.7 6 2
      vertex -6.79163 5.62822 -2
      vertex -6.79163 5.62822 2
    endloop
  endfacet
  facet normal 0.120553 0.992707 -0
    outer loop
      vertex -7.40357 5.20583 -2
      vertex -7.78368 5.25199 2
      vertex -7.40357 5.20583 2
    endloop
  endfacet
  facet normal 0.120553 0.992707 0
    outer loop
      vertex -7.78368 5.25199 2
      vertex -7.40357 5.20583 -2
      vertex -7.78368 5.25199 -2
    endloop
  endfacet
  facet normal 0.885464 0.464708 0
    outer loop
      vertex -8.09881 5.4695 2
      vertex -8.27675 5.80855 -2
      vertex -8.27675 5.80855 2
    endloop
  endfacet
  facet normal 0.885464 0.464708 0
    outer loop
      vertex -8.27675 5.80855 -2
      vertex -8.09881 5.4695 2
      vertex -8.09881 5.4695 -2
    endloop
  endfacet
  facet normal -0.748503 0.663131 0
    outer loop
      vertex -7.04555 5.34161 -2
      vertex -6.79163 5.62822 2
      vertex -6.79163 5.62822 -2
    endloop
  endfacet
  facet normal -0.748503 0.663131 0
    outer loop
      vertex -6.79163 5.62822 2
      vertex -7.04555 5.34161 -2
      vertex -7.04555 5.34161 2
    endloop
  endfacet
  facet normal 0.56805 0.822994 -0
    outer loop
      vertex -7.78368 5.25199 -2
      vertex -8.09881 5.4695 2
      vertex -7.78368 5.25199 2
    endloop
  endfacet
  facet normal 0.56805 0.822994 0
    outer loop
      vertex -8.09881 5.4695 2
      vertex -7.78368 5.25199 -2
      vertex -8.09881 5.4695 -2
    endloop
  endfacet
endsolid OpenSCAD_Model
