<?xml version="1.0"?>
<svg xmlns="http://www.w3.org/2000/svg" xmlns:lc="https://librecad.org" xmlns:xlink="http://www.w3.org/1999/xlink" width="684mm" height="122mm" viewBox="0 0 684 122">
    <g lc:layername="03__superstructure" lc:is_locked="false" lc:is_construction="false" fill="none" stroke="black" stroke-width="1">
        <path d="M406,88 L391,88 L390,97 L375,97 L359,88 L359,82 L328,82 L306,73 L302,62 L302,60 L306,49 L328,40 L359,40 L359,34 L375,25 L390,25 L391,34 L406,34 L412,41 L445,41 L445,81 L412,81 L406,88 Z "/>
        <path d="M660,80 L624,80 L619,87 L616,91 L607,91 L606,87 L600,87 L600,99 L572,99 L571,88 L521,89 L521,117 L515,122 L500,122 L494,117 L494,101 L462,101 L457,81 L457,41 L462,21 L494,21 L494,5 L500,0 L515,0 L521,5 L521,33 L571,34 L572,23 L600,23 L600,35 L606,35 L607,31 L616,31 L619,35 L624,42 L660,42 L666,38 L684,51 L684,71 L666,84 L660,80 Z "/>
        <circle cx="1" cy="61" r="1"/>
    </g>
</svg>
